<mxfile host="Electron" agent="Mozilla/5.0 (Windows NT 10.0; Win64; x64) AppleWebKit/537.36 (KHTML, like Gecko) draw.io/25.0.2 Chrome/128.0.6613.186 Electron/32.2.5 Safari/537.36" version="25.0.2">
  <diagram name="Page-1" id="FwtY3ocbpqwNTOJ6F-q8">
    <mxGraphModel dx="1313" dy="819" grid="1" gridSize="10" guides="1" tooltips="1" connect="1" arrows="1" fold="1" page="1" pageScale="1" pageWidth="850" pageHeight="1100" math="0" shadow="0">
      <root>
        <mxCell id="0" />
        <mxCell id="1" parent="0" />
        <mxCell id="b0eN_dFggWS_qcE9vVDw-1" value="" style="shape=image;verticalLabelPosition=bottom;labelBackgroundColor=default;verticalAlign=top;aspect=fixed;imageAspect=0;image=data:image/png,iVBORw0KGgoAAAANSUhEUgAABPMAAAFLCAYAAACzwckRAAAAAXNSR0IArs4c6QAAAARnQU1BAACxjwv8YQUAAAAJcEhZcwAAEnQAABJ0Ad5mH3gAAIUDSURBVHhe7d1/dFT1nf/xl1+76hIdokCMFb7JQIqrgvzsD5BA3TQ9ciJ4JCxYqCQ9a6QcfxRdqiDQwyk/RJta/MGhGPdI4kILy+ABzMGzMWsBBbuFIIK62sCEBUoMoMngUHTr1+8f987MvZ+5M5mEJGTw+ThnjuZ+PnPvnTvDTOaV9+fzuSQnJ+crAQAAAAAAAOj2/o+5AQAAAAAAAED3RJgHAAAAAAAApAnCPAAAAAAAACBNEOYBAAAAAAAAaYIwDwAAAAAAAEgThHkAAAAAAABAmiDMAwAAAAAAANIEYR4AAAAAAACQJgjzAAAAAAAAgDRBmAcAAAAAAACkCcI8AAAAAAAAIE0Q5gEAAAAAAABpgjAPAAAAAAAASBOX5OTkfGVu7Ei+6dt0Y//Yzx9Xj1dDnbMH0s7YGcp7YIQy1KBDU36jz8z2TvWl1m04pkHv99Utiy41G7uvLr5mT648oqnKVu79l5tNAAAAAAAgjXV6ZV5o7Xj9cfF4/fHFP3V6gIEExs5Q3oZndH2J2ZB+nlx5TKN9mdqWTkHeBfDYpt4KDWjUu4u+NJsAAAAAAEAa6/TKvKjrfqmb7/22wulWmWdXVGnvStU/+ZHZmh7sx/DX6p/peKXRVvKwhhTlKpzg8V322GLdOEI6/vxCndphtnatskUnNf970q5f9dG0WrNVkgaq97/er+uvktRQrf2P/oe72X6sJvOxX/nUMxoQ301SyLoO/jS5Zve1qGFSs+o35egHL5iNAAAAAAAgHXV6ZR66ucr3dEpSxsDv6TKzTQPlG+iTzvxZoQsZSkmSPtfU751V6O1rEgR5ksZ+T5lXhXR8b4OUe7OuNNslO5D7mfZPsW/VDcoYcb+G/OuM6OP/7NFIe7VO2WGf9bMdzqXLNXuhp9YfkvImtehJsw0AAAAAAKSl86/MG/68vls0IPbz4YD+uPZFZw9Lq5V5t+naBx9VbmZsy2d/ekrvvfaGs1N0P7Gg5pA+WPyAQq5O0uW3b9TQb2fENiQ6r9a0oTLPrOjyrNyKzp1msqu+7ADIqu7yxZrNSrME1XZXPvWMBvTaqw/+uUqXJawws5yy72udt/v4ksdjN8/9jHWcLxx3ifmhrt9QpN7Rnx1zxZU8rCFF18Qfz+Z8DJF9W1V5l2n97T31mNE/4rLHFuvGgX/WB//cqD4biiSzEjHBcSPXOnI9YqzH8Pcez2M6XDNJUkFY7/78lPR24jkG8+dVafbIDAW3FmvOGrMVAAAAAAB0J+dVmeebvk3fLRqgj6vtefEWj9cfPxiq3OFmz9b5pt8vbXTsp/qQrvz2o7r59ttinewgT396KtbvxU/Ub/q9zl3ZQZ7U8GJsf++cvr1d55WaH+r6DXaYEqn4en6vNOJ+DXnqh7FujqDHqvRaqeNnZIc2kZBmoHr/6zO6ccQnOhTZ15RqncotclWPpSJaYfb8XoXt8C5akTYlFlx99l6DJJ8yRw103f+yUd9ShkJq3m0HWTuqVG/f91CDq6vb2BnKs0OwyLEONeRqwIaHrRA2eFph+XS537yjw+lGRyj1pW676ax06IqEQV6kIi780dv6Qv+hlgap982Oa5/EF42fmJta1f2vma32Ch0MSb6bzqnMbJMk5WvsQCtq9A+6CCZVBAAAAADgItf+MO+6X6pff4/VaeseSFB5l1xo7WR9fMKxoS6ghmbpym/dpuh6nNddoysV1qn9jmq9E7/Qe0bF3eW9MqTm99Xs2N/nr01u13ml4rLH8tVbDTrkrIraUaX/2RuScvPVe6zdb9S3lKEGNUarvD7SqR0NknLVM5KjlBTp+qtCOv68c8XT/9Dx6gbpqhHq0xl5S2W1jp8xh43aw0UbdnpWgiVz5R0jlHFmr/7HUc322aPVOqVcZT82UNrRqL86+l/22GINiYRWGqgreknh047kq+CcBvmk+v1JVma1h9hGQrTP3ks21NbtsuxrJIX0edBsSaK7X7OoS/XG+z0k39+UZzZJknZqx0dhSVLwoDmhIgAAAAAA6G7aHeZdPuQmXalD+qSTAjLpDf3VLJg68Yk+U4Zy792oa68z2hw+Px2WMr+toQ/+MhYEdprIHGmn46qivtj9Z1c11WW9HMNmXWJB0pU350r6ROfMMMiep+3vs92VYB3jI4U+CklXfUs+O3i0wjHp1HvGIhKt+qF65squkHNq0OdnpIxeudH/jzwW67pEAs1cXX6V647SgL/Jpx5qOmRsd7hs1LeU4ZynLnhaYWdImkjJw7pxhE/hvS+3MYDr5tfMoeIvl0n6Qv0KzBbLzidmqLiYIbYAAAAAAKSD9od5vTKk5k/0udnQXtf9Ujcv3KbvOm439jf6nPiF3lsc0MfKUO69kX7Py4zIPn9tsv5YfcgK9CL7M4bidjivIY62SADz2at7FY5UWknWkNqxufGLJXgEgxFWsNPxIsFjZNhopIqwpa3FWmOz9feStajEhmccN3uVWUnSRzp3OvJYfqieuQ06vjfkCir/2ph8fkI3O1B1Pgc73lbzGan3WHNosk/XP+A4r6JrdPz5n8XNiZeK9L5mAAAAAAAgHbU7zLOq367pmMq3yKIWhwOxufAWj9cHh82OkvSiGhzz6kkDdKNHoKe6B9z76V/c+YFeAtGQxd9LGa7Q5n5dL49FC5LwHkrZAezwyxo2Ghku+p5jqG+K7OGgsRVgjZtzEY9e2bpsbLb+vuE9nWr8xDr22Gz9fVuHvNoVccotig/CnJVzUvxqttG5Ctshna8ZAAAAAABIS+0P85oaJQ3QNR2wqIQ1ZDeshv9s42qzdQ/YgV62/j7JsNvQWjvQu+b/dkz46GIPt/SYn81dqWVX4TVUu4MaI8j77L0GjwBKUsnN6u1cWMGTNVwzjh0WJR+i6xg2WtLe4aIyhoYm9sVpa/3hy0Z9SzrdYA0jvupb8vkVP8z40DcU0lllORZNdopc59iCIfbt+b2uyrmO142vmUPZN7+QdJmO1potlvx5VQoEAiovNVsAAAAAAEB30+4wL7JAxbVFxvx1w59v86qxVjCYod5DIivX3qZrH4wfZnv57Rvj9u27cYCkRv01utjFbbr2QbNS715d01/SJ//TccOCHb54cqdOKVcDjJVr/+8In8J7q+1KLWuYpHplJ1+RtrJax8/4dH2Jc3joD3V9Ua57YQU7oIut2PpDXb+hSL2j93Gyw6IRRXGBo1Nk2Oj1RSPaN1xUii3qkVukvOhw4nhfNH4iXTVCA0bIDij/Qy0N9rHNYcb2iqx5Q7yevSQVca7Kuc7Rba9ZlL0ScOgbqjebJFazBQAAAAAgzVySk5PzlbmxLXzTjdDtcEB/jK4ue69yFxbrWkdzzCF9sPgBWbVGVlA39NtWqCBZq+R+cuM23XjNn/TOc7+IhnBxx2t2t1vij/vZn57Se685VsFN1dgZyntghGJnFhPeu9Ix11p8mHaq+mc67gp34vtEuPsOVO9/dc6XZh7LZpzbqeqf6WT2Yt048M8eQ3fjjx1/fo7jNlS7h3faK6jeOCJuQLPkdX6e1y2k48/bw1oj7Wccw4xLHtaQIrt60Th22aKTmv+9y7T+9p56zNlg7+evcY/FYp2zrOP6H7bnyEs+tPbKp57RAM8iOcf5R3XfayZJKgjr3Z+fUtOmHP3gBbPRkj+vSrNHZii4lUUwAAAAAADo7s47zEOq7DDNGcTYrPDIKyhCzOd6/bVG5R3KVu79HT9Y+mL15Mojmtqnt5ZOyVCF2QgAAAAAANJO+4fZom3sFUvDH70dNxwyMhcakrlc69/uIQ1o1Ov3mW3wdF+Lpg6Q6l8nyAMAAAAA4GJBmNdV7Dnu4uZvs+fW05k/K0RVXlIVi/po/SEpb9JJrSswW+FSENa7k5oVertvwuG1AAAAAAAg/TDMtkvFz1snr7nTkMSXWrfhmAa931e3LLrUbITtyZVHNFUMSQYAAAAA4GJDmAcAAAAAAACkCYbZAgAAAAAAAGmiXWGe3+/XFVdcYW4GAAAAAAAA0InaFeYBAAAAAAAA6HqEeQAAAAAAAECaIMwDAAAAAAAA0gRh3oVQuFYP1ga1sLZGw8y2zjKrRgtrg1q4aa2yzbbuLHqt7Fu6nX86ua9FDa+16Elze3dXWq5AIKDAS/OVb7Z1kpLygAKBgKrmddURoch178Lnue3yNf8l67VRXmq2pRv7sZSXmA0dJ13fcwAAAIALjDAP3VvNdD1X4NfiAr9erTcb0WEKwnp3UrNCb1+px8w2oIt027Bu3HxVdcuArkTl6Rwqv3CldoWaNXVDWGVmGwAAAICELsnJyfnK3Ngav9+vEydO6Ny5c2YT0GmGrQ7qjj67VDFpuhrNRpyHz/X6a43KO5St3PsvNxtxESkpD2ii39wqSWHVPTtDS7eb21NQWq7ABP/57cNWUh7QxF51WvGTpdppNqbQ3mnGzVfVQ8PVtLVYc9aYjRdSicoDE5W1Z4VmPNHRVyRf81+areGnt6h4TqXZ2IF4/wEAAADaiso84GuubFFIecrUer5IX/Qq5xSruLhYxcVbFJQU3rPC/rn9IVzJIL8UrFNdKEM3jE7TCjFcQJfrB5sypQGNev0+sw0AAACAl4uwMm+57qmdKm30q+b6/Sob5bO31+vVgkLtc/Ut0/hNj2tkz8jPIe1ZPkTbamI9spfsV9moJr1asEHZzr4tkQoxax957y/Tm30e1x15UvPuZXru+BQtnJzn3mfhWj04d7QyIzuP7iOeddzIuUuqX6/FM+c6u0iRarW82M/Nu5fpuQUVsQ2zauzzsCXYj1I4ZvaS/Sq76aAqJh1VYe1U5drb447ZJtbzFdmX9/Nkaa0yz7wW5vlHmP08z998rhKdV0rX13yM8a+zC8eqisl6u69uWXSp2WhXJN2gD5+doWMTHFVdIa/qKKtKKFb4FdSW4jmK1fQ4Kn229lXVQ8OVYbeEI5VF0ePV6uqHJspvV3tFj+08brQizBZMXEFkVqRFj+dinn98pZm5n2CSSi2zr3nMkvKAJir+WnjtM39elWaPjPRI/lhT03pFV2vnb7H2o63F2nxdlWYP/NB4XXgfx3o8Tdbrw656czw6N8dzHq3MWyOVtXLNWnt95M+LnO8x3el43p2P07wGpthx7dd29O0z/rXj0sq5yevYjj5xrwdD/HNlvrbNf5uWuGPK+9w63pdat+GYRqu3lk7JUHs/TQAAAICvi4u2Mi93ctAKngr8WlywTHta8nSHa/GE5bqn9nGNPLlei+052Sp2SyPn7tf4QteuJOXpjlorsLP6rldDz9EqW7081uWmBzTm5DJV7A4p86YH9OBk6dWC9WqQT3nj7NmAUpz/zQrVpD3Lrb6LC/yqODle98xy97NCqXq9avdZXODXm30ecJ//qkK7bZn2tDi2u5Rp/KagHVpG9rVeDXlT4xec6DlaZbXjdSpybhvrlTnq8bhzS8msGi2snarc+thzsLhgrwY5r2uKspfs16B3Ytdh8fJdas6bqoXGvlK6ZnaQp92R59uvxcubNMbYV/aS/Vo4OcvxPNnXzNXPDvJcj3Gbes/qJgt53HdOeeqhgzs9gryoDA1/yA6eIlVdvuGa7ZwYf9x8VdmhjdWnWFuCfk0MlCtu+nz/RAUeukEfPmtXiW0NKmPkbNd8ZDeUFujTZ1dY1V6lVXboFZR8N2jsOLvTmjn2sVaoLhS7r8kKKILaYp9XcXGxanuVaX5kP1YvK+wIRh5jsYqLa3V1qXv+tmhl27N1Cju2u1nzmE3sVacVkX09WyeNnB2/mIB/ogIPXa1au9+KPWH5J1S5zs0KbqS6yPUqLtaK0wWdOn9batdMUulg+RXUgTXSzl0fKux8flK1falmRF8zdnjnOG6xGRr7hmu24/VjXTP36yx/XpUCE7Ic12yLgv6J8dffN1yzAwX6NMFr0Xy+g1sd51XsDBB3aulPYvtIpqQ8oMAEv3tfBwe7ns/8eVUafNDR/mydwo7z3/nEjNjjclVYWjdXkJfSv01rsQvXa7aVf1cd61K98X4PyXdWtxWYbQAAAABMF22Y5656q9C2mnqp5yANs0Ob7CXjlat6veqoompc8Lz2tPg0cnJ8mNSw0e+o3pqrg/WS+vSLBjKZPZv0ZqS9p0/NG2NVXJl9Btj/l5rr+vikloPa56jcalwwRC+vcvYqU3YfSfV7XdVi+2a2o+Jr1hSN7BnSnuXOyrO5enljvdRztAqNoK5ho+MYq/aqQVLm9W2dvrxM4wvzPCrZ5urluMq21sVdn5rperNeUt4Ix4rBKV6zvCxlKqT67Y76kJrpes51XstVOMqn5t3PO+5rX7O88bFwsLCfMiU1vGM8xgTVhcl8/xcbVF1dneC2QYv+0bxH654c0iyFeuiNWrPF4KrOqdTmPWHJPzgaBpRMGK6MUJ0qHCFC5ZwtCsqvgrjJ+YPa4hzWueaAgpKyrov0y1DG6dpoe4avSVuix87Q1WblUFL56ttLUvCAqwqpco5RNTWur7IkBQ+6emmOGSSlIH9egfwKaovzvtuXqmJPWPIXGIFYWHXPxiqkdu76UGHjMfbvlSGFPtQOx/nufGJGfCVah0nxmikyxNbut32HPuySobbuqjfrmvk1OBqGlejOkRkK76lwnG+l5mwNelx/Kbg12Wuxg42brwK/RyXhmjmun+Oe3+1LVRuU699cqlL6t1l6p4b7wqpb0/bXe0ep2NlDIZ1VVts+LgEAAICvpYs2zGt+/w/usKS+Sc3yqXeeJJVp2E2+uFBHqlDjSXdIZwnplFFJt2+mX4udgYxrX/H92+LEyZBVAWdWxbnY5xpXCdZ2w4bmSWpSoxkCegZ19TroChXbqfD7yutphlwd68RJs6wkxWtmv1a8qzRts0Yo1wz8ZL7OJNUcVbNdKdqu6kWHP/xyioqKihLcpmjRf5r3aM2X6tdH0slvtDqszR1ySTtPNEnKUt9xklSiwX4p/NEOIwg4rE9DUkav/q6tCn2qw64NlZpjVBO5jhfXvy126thpuwLOrMpy2n5MTZL8E853xdJ8jR2Y4XnOXkGdGdJ5OXw6bFWQddkqryleM/t5jz1X1v0yBo7t3PNs7ZqVDpZfYX24y4ilgp/GX3+7qrCr5I++QRntPObh04lrQRNL7d9mySB/69e1s9V+Q02Ssr75pdkCAAAAwHDRhnnJDVDvnnaoUxt03Vxzrl0gjQuGaLFdFVcWOTeP8GnfTL8qdodcj+PBJW2tkLO1NOmEuc3W1srClNjVb+cTerot1z3Gc+ma/8+W0jWrma7n7CHSI+dG9lfjqPCTsq/Pklzt9s01z56sKjx7iHPu5Ei/JCFhOrKr2jJGzlYgEHDcnHOIXTiVc6yhmPJPjJ5bVVy1YKXm2MMK/RMi5+8e7tomp48lrHBqa9XXzidm2EOMh2t25NomDdnOX0rXzA7NPnWMKq08aJ3nnecViJ6f/OuyokPDXa/HZPPydRGryjI+6I1nDdV2nn+yOfIS6ub/NgEAAAC0z9c0zDukUy32YgWOudOit3YMgexw0bnu7Pn1ElSTNS4YYvezAqPMUY/Hh1PnqfnkIXPT+TMr2M6LPS9dyy57jkTrVrHbrMyzpHbN5urlyL421tvzJsYCvcbjTfZCFh6vnwK/MSS6Qtsm2W3Ld7Ve9ZdAZwyz7RB2VZs5b1f01umT57cuNseYFdhljJwdH0455z17tk5hZWj4Q+cR6CXQdCJRzJdEdH5Ae165Vqvmzl9r16xkkD8+NLMXdfAP6txzS8aqGg275hh03jpveHLrrCrLq2XUqhrs+RuNuQNX7GlHZV4a/NsEAAAA0HZfmzAve9wgZUaHiCYaTts97ZtpB3pJz7dC2ybZ4VQbK+n2veOeTzAq0VDSjhAZfjo0PqBss1kjlCupoaatIWyK12xVoR3oZSk7co3aG0bWTNdzdqDX1vt2/DDbS3X0pKQ+f5MZZbbGPSwvwXDabmmnlv7EDqeSne/2pZphB3ptm6Nvp3Z85J5PMOJ8hlg6Vc6xA71efeOHs46br6pAQAGvhUfazeua2cM3PUIiK2yMf/wx9lBkD6mFXa3wHE57nuxQrK1VlSYraHTO7+ehdLD8koLbU5m/rrV/e621Wzyve+mdiav3OuN1VvA3ZUlq+kuyxXgAAAAA6GsT5hWu1T+N8ql594bovHb7Nu5Ss7kibbdQpvGb3EM6peUalCfp5FFHWLVc95hz6tnz0LW5km7VBmvhD9cKq8t1z+Q8qX5b2xfUSMlc1djDXd1Vcct1T1ufk/qmuGBw2GqvYbapXbPsJfvj5reLm1fQXmAjd3IrFXazauKq/qxguSOHGLffY/sz276CZGm5JvqdYcNOLd0elPwTPardLrQSlZtzzY0bqxt8Uvi0Y7BjaXncuVvhm3sYaSp2PlGroPyaaKz2WzYyQ+E9m12LSrQuX/NfMgMTK0jzGsprnbNaD4ySSuGaJZqXLjLUNnp8O0yKzqOXr/kvJR7iGQm74hdNaQN7sQhzVeDzYz+OkXeeX3i1ZrM9lNs4t9Ly2FyNwU8VNqobS8oTDbONzG8Yv7CHJbV/m5FFRKLXfdx8VU3IUti7uFnyXx19nZ3Xc+VQln9WPvVQUxs/vgAAAICvo0tycnK+Mje2xu/368SJEzp37pzZ1A3YQy6NrQ0bzaGPSqlv9pL9Khsl7VmeaJXYMo3f9LhGnrRWZXX3t/dvr9hqtXl/i23evcyxWm78ebnbbYVr9aAxR5v5OIetTjwPoLuv/Th6xtrNY1rn36RXC5yr3lrnmul1fqmYVaOFk50nWO/af8rXzNhP8+5l+nc9EH++KVwzeV031+rIMZ7nZ/SN7+N+jBfW53r9tUZlvd1XtyzyqIgZN19VcXONuVcTjWq1rx3kqE4rEq0Sa++jaWux5qwx+peWKzDBH10JtKQ8oIkJqq9cq4V6nFfcaqKS8udVGYFJUFuKYyvNRoc/OnrEtN7XPGZJeUATexnXwvX4oz3j9hXes8K1YEhU9LGa52NJfM2M57SVa+Z57lH2+UZXQHaff3jPCs04cacCE+R5jnHPQyh2HM/jel4zj/3IvS+rvcnzecvyvL7xz0P0mnhcryjHMSPingfXatFWuBcZsiz7mlWozON85RmQxr0+PM/PeM5dx7RePyoPaKKMc5Ncx4w7Vrt8qXUbjmn0yWzl3n+52QgAAADAcNGGee0Ol4CvmbJFJzX/e9KuX/XRtFqjMUFQAuDrLRKWmiF1u9zXooZJX3i/BwEAAACI8/UYZgsgoYpFPtXrrEbPDLd57jwAX0P2sHEFt5x/kKfP9fqkZumQjyAPAAAASBFhHvC1d7l+8KveCvlOaf7Kz81GALDla/5LAQUeGi7tWeEx/LatvtS6DY3KC/XWUobXAgAAACljmC06jsd8dJ7sOQTRzdzXooZJ0vrbe+qxyDaG2QLoLF7vOQAAAABadRGGeQAAAAAAAMDFiWG2AAAAAAAAQJogzAMAAAAAAADSBGEeAAAAAAAAkCYI8wAAAAAAAIA0QZgHAAAAAAAApAnCPAAAAAAAACBNEOYBAAAAAAAAaYIwDwAAAAAAAEgThHkAAAAAAABAmiDMAwAAAAAAANIEYR4AAAAAAACQJgjzAAAAAAAAgDRBmAcAAAAAAACkCcI8AAAAAAAAIE0Q5gEAAAAAAABpgjAPAAAAAAAASBOEeQAAAAAAAECaIMwDAAAAAAAA0gRhHgAAAAAAAJAmCPMAAAAAAACANEGYBwAAAAAAAKQJwjwAAAAAAAAgTRDmAQAAAAAAAGmCMA8AAAAAAABIE4R5AAAAAAAAQJogzAMAAAAAAADSBGEeAAAAAAAAkCYI8wAAAAAAAIA0QZgHAAAAAAAApAnCPAAAAAAAACBNXJKTk/OVubE1fr9fJ06c0Llz58ymbss3fZtuvOZPeue5X+hzszFVw5/Xd4sGODYc0geLH1DIseWicV+LGiZJ62/vqcfMtg5RpvGbHtfInpGfQ9qzfIi21bh7uRSu1YNzRyszuiGF++D8dfprAQAAAAAApIrKvFTZQd5nf3pKf1w83r6lSZBXOE2ba3+l1bPMhgQKwnp3UrNCb1/ZieFNhbZN8mtxgV+LN9abjfEiQV79eus+BX4tLiDIO1/ZS/ZrYW2NhpkNTi9cqV2hZk3dEFaZ2QYAAAAAALoUYV6KfDcOkHRIR197w2y6yHyu139+Sr5D2bpl0aVm4wWTPW6QMhXSno1zzSZ0uks1bUq26n2nNH9lu+taAQAAAABAByDMa4vmT9o/RDdNlC0KKU+ZWn//5WZTN9CkRirxLpDL9YNNmdKARr1+n9kGAAAAAAC6ykU7Z97lt2/U0G9nuDc2m3Pm3aZrH3xUudFJ2MJqeHGyPj4R7RDVEXPuFSz5hR6/qV7LJn2sKbW3K8/e/tnu1bpzgXuoacGSX+jxUVfFNtS/poKZtc4ukqSfrv6V/imyI2NfZpupfuPPNXOVc8vnev21RmW93TdpVd6w1UHd4dhv8+5lem5BhbOLpOW6p3aqcqM/1+vVgkLtc/WxzarRwslZSee/y16yX2WjmhLvoyM5zqdxsvOxejyGWTVaONlxMerXa/FMs3rQvBaWho1+vWxf/2Grg7qjzy5VTJquxkgHe2hxs6OfotfCF/05tevvnF/QbDN5PE5J0pdat+GYRqu3lk7JkHlESdK4+ap6aLgygltUPKfSbAUAAAAAAOfpoqzM803fpqHfbtQH0bntxuuDw2ave5W78FHlfhKI9nnnT1LuvRt17XVWj8tv36jvLtym7y7cphv7S8r8tobaP3934TbdfPtt5k5b13OYHq+9Xdr4cxUU/FwFG4/oylEzHfPZ5WnZpl/p8VGf6N8L7D4Fr6k+73bVbpqmAseurLDuiKPfz7WtzzQtK7TafzvT3r58nz6zw7tIv4ICM8iTdN855amHDu5sLcir16vReev8erPPAxpvH1OyQ6jaqcrcvSza59X6PN3R2txsplk1Wlgb1MLaoB1e5ekO++eFtUEtXL3cvEcH8mnk3KDuUGSOvmXa05KnOzatVbbdI3vJfjv0i1yL9WrIm+o+L49rsXj5LjXHerTJsNVBO9SM7UujHteDS5yz2dlhnWt+wW3qPSty7nP1sr29YnfIDu9iz+dizyBPki7VG+/3kHxndZvzheiQP/oGZUiSf7BKzEYAAAAAAHDeLr4w77pfql9/6ePq5ItTXH777bpWh/TB2hej2z5/baUamjOU+4/32j9PdoeBzX/SO46A8L12zp/nqohb9Zr+2CLlDbXTkVm367s9z+iPy5/Xb6P3qNXMjUeknsM0xRH6/d8+kuo/cPSTfjvzl3o8QXVba54c0iyFeuiN+AJAW5my+0iq3+sKe/bNdFfUDZs8Wpktu/TvjmqxfTPXq0F5GuMKnVqxqjAaMHmGTnEVcB2refcyxzEqtO/9kNQzS1bWu1yFo3xq3v2847HP1csb66W88dFw0+tatFvhWo3Jkxo2OsK2mun6990hZY6aEgtKC/spU1LDO87rM1cvO6v+2qliZw+FdFZZzkWdHXbu+lBhSQoeEHV5AAAAAAB0vIsuzLt8yE26Uof0SZ3Z4nSbMr+VIR1+xwj83tBfP5F0zf9V580Yd0T7XBVx9fqfk5L6XKsCST8dmiPpE/2PGcit+kD1krKvjwzptO+Xd7tqVycok2qTL9Wvj6ST3/AePilJqlDjSUlm9ZnLcg3Kk5rf/4MRHB3SqRYps0+CFKgbaj7uvhKNC4bEqtZmjVCuQqrfblyt+iY1y6feeUpyLdrHWgSkXgeNisrG402SspQdqY6sOapmSbmTg7on1RWMU1X7DTVJyvrml2aLZftSzSguZogtAAAAAACd5KIL81IzQH+fKal/cXTIrGs47YXW8on+bG6zXdknJ/r/v535cy3bfcYK9Gp/pdraX2nzkiST5HWAfTPtKrm8qdHhrq4hnnZVWOaox2PDYWuDWlj7uEb2dO4pvWVfnxUdiut6nHNHKzoFYwe7ro/HUOPaoHvOPskeRrtMe1qsQM/qt989FBoAAAAAAKSlr2mYd0h/bZZ0ODZfnut2HotcdLbPTh5x/Vy74Jf2HHir9ccW6cpRMzs90LMq1CLzyFnBXTTQs6vCmp1zxHXh0NiuYlXDhRzz5blvzgUrOsqJkx5DjaM3c/GQCm2bZLct36Vm+TRyLoEeAAAAAADp7qIL8z5vapSUrb+3F7GQYvPoxXTFcNpUFWhYnvTZ+/+lWkm/feeI1DNPBWboMutG5emM3tvuXvU2pl6PT7IDPUf1niSp5mM1uoboerlUR09K6vM3pT6rXYW2TbIDvejw2Qs8nLa0XIFAQIGX5ivfbOtIruG0iXhfi2GTU6ves4bVxsQNp01VzXQ9Zwd65vm2eZ8Ff1OWpKa/JFgkZdx8VQUCCpSz/AUAAAAAAJ3hogvzVPeOPlZsEQvpXuXe+22pOezqFvrPP+mzzG9r6PRIvwvjp6tvV56OaNsCO6Rb9Zr+2HKVvjvLuXJtgVZPzpHq33IsblGg1cbqtir8jm7uGV+9Jx3R6RbpylG366dGi9Nj+zOTrlQqLdc9jtVcJUmF31deT6n55CF7Q4W21dRLeVONFVa7Rv51Wdb/+IbrzlKztQPVTNeb9VLu5GTVbvaiGY4FMbKX7NcdfUJxq9meOBmSeg7SMEc/awVfh1UbtKfFp5FzW1kVeFZN3LW3gsGQTplZsB1KjpycaA5Et7L8s/Kph5oiT7eB1WwBAAAAAOhcl+Tk5HxlbmyN3+/XiRMndO7cObOpe7jul7r53m/rSklSWA0vTlbzkI0a+q339Y5rCO29yl1YrGsdd5Wkj6vHq8FYQMM3fZtuvOZPxv3bpmDJL/T4qKvcG1v2admkdXIvIJunZZtm6ruOOeY+271ad0YCv4jCado8d5j9OC2ulXJdCrS69nY5C7Pi+36u119rVNbbfXXLogSVV4Vr9aAxL1zDRo9hpR79rGGp9nBQz3Zbyy5VGCuvWuFWk16NLECRUInKAxPllxTcWqw5a8z2FMyq0cLJed6Py+AZuhnnP2x1UHdE1y1Zr8Ub++nBuaPVbOzf1a9llyomHVVh7VQpWb+I+vWuIczx51Wf+NrZjzcmUd8vtW7DMY0+ma3c+xPUtI6br6qHhisjuIVFMAAAAAAA6AQXZ5jXTVlh3if694Ln9VuzsZsoW3RS878n7fpVH01zJ4xpo6Q8oIn+sOqenaGl283WbsAOMs0wr9u7r0UNk75I69cGAAAAAADp7uIbZovzUrHIp3qd1eiZ4TbMndeNlJZrol8K76nonkFe2vpcr09qlg75CPIAAAAAALiACPNguFw/+FVvhXynNH9lewcUXwglKg8EFJjgV3BrsWY8sdPsgHb7Uus2NCov1FtLEw2vBQAAAAAAXYIwD/FqM3TLpkxpwDk9abZ1W5WaU1ys4uJ2zpOHxO77TKN9mVo/JUMVZhsAAAAAAOhSzJkHAAAAAAAApAkq8wAAAAAAAIA0QZgHAAAAAAAApImLKszz+/264oorzM0AAAAAAADAReGiCvMAAAAAAACAixlhHgAAAAAAAJAmCPMAAAAAAACANEGYBwAAAAAAAKQJwrwud7eWzazUi7eOMhsAAAAAAACApAjzAAAAAAAAgDRBmAcAAAAAAACkiUtycnK+Mje2xu/368SJEzp37pzZdEF11/OSpFtvXaX7B/UwN0edPfhb3fvWbkmj9Oi0n2poyzZN+69v6sVJQxS5V6zP3Vo2c7xyz+zXynVP6y3njm78pdaNzVHDjhI9/oFj+7j5qnpouDKCW1Q8p9LRAAAAAAAAgHRBZV4XeeutWZq2ukTTVm9Tgx3MWT9bNyukc+g7XusmfUsfbbL77DiiHoN+qmU3StLvVX3wrHTVt3RrH/fdpvfPkXRE7zmDPEn5o29QhiT5B6vE3QQAAAAAAIA0QZjXbR1R9epZeuqk/eMH76tBUtY11sIZb330Z51VDw0c6FxI427d3Fc6e3Cb1jq2StLOXR8qLEnBA6IuDwAAAAAAID0R5nVXZ5rV4Nrwez3urOA7uVsfnZF65IzSrZEuN96kXJ3VRx8ZVX6StH2pZhQXM8QWAAAAAAAgjRHmpa3demrfEddQ2+n9c6Rj22PVfAAAAAAAALioEOalsw/eV0N0qK01xLbh8O/NXgAAAAAAALhIEOZ1uSNqPiP1yMwxG9rBWgijR84o3XrjTcr1WPgiatx8VQUCCpSz/AUAAAAAAEC6Iszrcrt1vEVS33F61FiJtj3e+ujPOnvVEN0/Nsdz4YsIVrMFAAAAAABIf4R5F8Da6t/qnTM9NHRSpdbNtG4v3upclbYN7IUwlGjhCxur2QIAAAAAAKS/S3Jycr4yN7bG7/frxIkTOnfunNl0QXXX8+pco/TotJ9qqPZr5bqn9ZbZDAAAAAAAgIsGlXnprs8oDbxKathHkAcAAAAAAHCxI8xLa3dr2aQh6nFsmx5PtPAFAAAAAAAALhqEeemozyN6cWal1s0cr9xj2zSt+vdmDwAAAAAAAFyEmDMPAAAAAAAASBNU5gEAAAAAAABpgjCvi/j9fl1xxRXmZgAAAAAAACBlhHkAAAAAAABAmiDMAwAAAAAAANIEYR4AAAAAAACQJljNtot053PrVLNqtHBynmNDvV4tKNQ+x5YuU7hWD84dreaNfr28ymy8sLKX7FfZqKYLd22QVkrKA5rYq04rfrJUO83GLvW5Xn+tUa5/4Zty9IMXHBsGj9Erhf2kI2/qrkCLFtxbpBE+6XDN7/QvBxz9Oklp8Y90Z45jw5E3dVfgqGND1xl7W5EeHtaizU+/qTVm4wXVT79+ZIyu3VetH78RMhs7jXU9fArvq9aP3+ipXz8yRv0V0t611VrycazfkyuPaOoAxx0PZSv3/ssdGwAAAICvFyrz0HnsIK959zItLvDbt4srrMpesl8La2s0zGzA196w1UEt3LRW2WbDhTZuvqoCAZWXmg3tF3q7r3Jvz1Hu7UaQFyekY59a//20yWzreFaQF9Letb/TXU/btwsU5HWW0uIf6ZV7b9ZYsyHttOjTkPXfY44gT5Ieu996beXe3le7ui5rBAAAALotwjx0mmFD8yTV680FFWYTgK+Lpk8VlhT+pMVs6WT9NDhH0pF3XVVe6D52nLJeEx+fIqEDAAAA2oIwD52rpUknzG0AvrYOfxLyrL7qLF0fIqJ97KrN0Kc6bDYBAAAAcGHOvC7Snc9NKtP4TY9r5Mn1Wryxnx6cO1qZdkvz7mV6zlVZZ/ftGfk5pD3Lh2hbjaOLbdjqoO7os0sVk6ar0WzUct1TO1WZu5fpueNTXPPqNcTNaZfaMa1553yxDfXrtXjm3NjPjjnzDg4N6o7IIVsSnWMi1rnnmpujzHkBzf7x5+81Z96w1fY5GudnPk7zOcpesl9lNx1UxaSjKnQc1+zX9TrhdWY/p5H9WBx9E8yT6P3aTO2Y5vV3vc48z8ehza81S/68Ks0emeHeGDLmzBs3X1UPDVesV1h1z87Q0u3WTyXlAU30RxvjBLcWa050Ird8zX9ptoY7HmZ4zwrNeMKcoc+aMy/r7b66ZdGlRltbOOZsO3WLNceeLX5uPatv/+jPRxPMQdfKPHCDx+iVwp7au7Zax8Y459Xz2l9qxzTn57PmgosdOzZn3hENduzP7Neqa2/Wv02/xfFcG0Lv6jcvvqcdkZ/j+pvn73GtHPdxPwe+6LyHFnOOO2tfqvmdNve25sSzmMdsjy+1bsMxjT7JnHkAAAD4eiPM6yLd+dzcIYYjwLDnvIuFa3Yo5QgvrGBD0fvEBR2GWGjjDLhi4Ze5v1SOmWxb4fEhsRDHGbRE9+cIFdsRdHmFcC6OeQMj+49cI2doae4nEuSZwaa13REW2o9JHvtP/lxeCB33OpO87hfZltWOMC+1Yyba5nqd2eKP0T5WCBfUluI5qnRucy2AUaLyl/pqsyPcs+7nDvSkWOjX5Arv3ErKq9R3q+N+peUKTPB7BHodG+ZZ4VYs9LHCL8XCIjtgkiN0sgK0yH3MoMnkCJ4iC3PIuSiGfX85wrBWj2nx3lakvm/Ggq7Igg9yBmSOULE9w4FLi3+kO682wjuHyDGdgVxsLsHIMY0wLxLkmaFg5HlyLCIS9xw5n8tk17VdCPMAAAAAMcwWbvV6tcARlqzaqwZJmdeXSZKyl4xXrur1qqParXHB89rT4tPIycvtn4dEF7t4td6uRIoufuGPD8xadqnCEYQ1bj+oZvnU266aS+WYknRdH5/UclD7HFVUjQviAxbJrNibq4P1UuZN3++EhQrKNL4wT6pf73rc1vlLuYXeiyNkL9nvGeSpcK3G5EkNGx3BYc10/fvukDJHTYlbhKNhY+LnMlXf/8UGVVdXJ7ht0KJ/NO+RivN/nTmvredz3EapHbONr7OOMG6+CvxScGssyPNWqTnGyraVW+sUVoZuGJ3v2JqayjlGALhms+pCUsbAsWr73tog9K5+4wjDdrzfoLB8ujrL+rl0jBUwveCoYlsTeFOH1U8/uM0KsJe8GFns4k0dtqveootfPB0fmIX3VTsWxQhpx6GQ5Ls6WjXX+jElyae+V0s6csRVebYmEH88mZVuB47osHz6h5sSJpDnoZ/utFeLdVY3Wufv04gxsQrImH76tWeQJ4297Rb111FtdiwisuONndob8thX6F39Jsl1BQAAANB+hHmIiZvfbq5ejgZwZRp2k0+q32tUoFWo8aSkPv08g6lWnTzqrlqqma7nCiIhVurHPHEyJPUcrbIUVg9teMcx9LYzFX5feT2l5pOHjIYK7Xs/JPXM0nVGi1fVXrRt3CBlql4Hje2Nx5skZSm70Lk1vl97/OGXU1RUVJTgNkWL/tO8Rwo64nVmX9uOeS5TPGYbX2cdIX/0DcpQUAcSVNAltf2YOm7B2J06dtrc1gk+Dbmrtj5+Tz9+OhJ8WQtahA8dNSq7rFVQM66Jjo9uE3PxhR1vVOuuaKCY6jHt+d5yxuiVYq+AzOmoDriGDXeiwTnq7/EYpaM6cETS1T5jFVy7qs4jyJN8GjvAFxdYRh+7sa/4awYAAACgoxDmIUUD1LunpLypWlgbdN2ic891uNSP2bhgiBZvrLeClki/1bGKqgup+Xii4btmAJenkfbw2FP1zu2W6/r4JOXpDuNaOOcbTH+pP+cdJ/VjdufXWf68KgUCAcdtopJMkZfcuPmqcu0r+Xx7XeJan66VlDGsSK888iPHLdmw2vPUhmOuCfxOv9kXsgI9u9+/RSv3LqSQPk2U6hqVchnDbrF+NkNVSVJPXe2zA0vXtXDPEwgAAACg8xHmIUWHdKrFHqLqGDYbvZ3nvGDe2njMVYXuIb55U7tN0OKtSY2uxRXq9WrBMmto59z9Gu8K+uyqMNXrVfM6FPi12DlstQN1zjDbZNr4nHeINh6zG77OIgtkBLcWq7g4ctuioNkxFZGFNIJbHPsq1pZ27awDfRzSx3HDZh03x9DPDtPGY1pVfdZw3r0hKwTsHoFeAsbKseF91bqr5miCCkOrGlFH3oy/Dk//TnfFVfIBAAAA6CyEeUhR/JDDztf+Y+6baQct7bhvW3gPcbXV/EH1LVLuUDPoSTSsU5IqtG3SejXIp5Fza1zz4CU9VifplGG2SaX4nNccVXPcHID2PHqtWq5Brm4pHtNDsteZNSQ3fih1nNJyq/rtpflx89HtPGE9533HOTba8+jF5GvswAwpVKfNqQzHtYffZl1nHs1iDe0Nq25r8ln6up45tLUrtPeYIS150Q702nzftjn8SZK56BLOx5do+LCkA29GKwzdQaT3cFoAAAAAXY8wDynbt3GXmnuOVlkXViGldswyjd/kDr6igY05J19Hq29Ss9yLJMRUaFtNvZQ3VffMim3NXvKARvYMac/GRPO9zdXLy3epWXm6wzk326oNdtWe+VgvLqk95/bCJY6FP4atflwjFVKzs5sd+sUCVecqyjGpHbNtrzMrfM3TmCXJFx0pGWQnc74bNNYZ2knSmgMKKkPDJ5TYG0pU/tBwKRR2dLLns3Pef9x8VSUcZnvYCqhG3qnIXp2sANG5cEa+5r/UDYbZKqQlf7Sqxrqu2i3VY/bTr++92R1yXdtP/+CTwp+0OLd2uB2nWiTXYhxOR7V5X0gZw/K14NrY1tLiMeqvo3rdsaiH0443qrX5iFVZ+OvBse1r3nxXYd8tejiuag8AAABAVyLMQ+pqpuu5gvVq8JhbzBlWdaiUjlmhbZP2apCrfaoydy9zrFrbSWqm67mNVmAXO7Yj8FlVqMUb65U7OXZuZaOa3Ku5eonst+dolUX3V6Ftk/x6td5j3rykIVSaSek5l/bNXKY9LbFrMebkMi2uaVKmc1+RYDS6r6nSRr8qdhshRkrHbOPrbFWhKnaHlDnq8Vh/j4UzKg/a41dDH2qHcwVZq1Vznq1T2D/RnruuQJ8+W6yKj4xec1aoLpSh4Q/Zc9w9dLVqEw6z3amlP9mioPya6JgTr7zUbl4zRyv2hJUxcrbdNltXb+8Gw2xlVY3dtfZdyWMOO2dY1aFSOuZR/ctW6T5n+/Rb9HHN7/TjBIFZh7Er6Vzz+jmCxR1vVOs3+6QR0x1z3F3tXjXYy5qAVVnYv9Ax99/H7+nHT7+pwx7z5jlDPwAAAACd65KcnJyvzI2t8fv9OnHihM6dO2c2XVDd9bzUzc8NuGjMqtHCyVnas7yVsBQd5HO9/lqjst7uq1sWXWo2Ah3sS63bcEyjT2Yr9/7LzUYAAADga4PKPAAAAAAAACBNEOYBAAAAAAAAaYJhtl2kO58bbIVr9eDc0cacax7q13vPkYYLj2G2XcwaZutcHLh+U45+8IJjA1I29rYiPTzMayELt8M1v9O/HDC3XryeXHlEUwc4NhximC0AAAC+3gjzukh3PjcAAAAAAACkB4bZAgAAAAAAAGmCMA8AAAAAAABIE4R5AAAAAAAAQJogzAMAAAAAAADSBGEeAAAAAAAAkCYI8wAAAAAAAIA0QZiHDpe9ZL8W1tZomNmA1JSWKxAIOG7lKjH7dJVx81UVCKi81GzoRKXlCgSqNH+c2dCVvtS6DUf07qIvzYbOMatGC2uDjtsF/PdTuFYP1gZ1zyyz4cK7MO8tXfxaAAAAAIBWEOYh6sJ8UYZLabkCE/wK71mh4uJi+zZHlWY/dKonVx7TaF+mti261GzqeLNqtHBynpp3L9PiAr99K9Q+s18aS+/3lks17fVM+b53TK/fZ7YBAAAAQNcjzAPapUTlruo5+1Z+fjV0JYP8koKqfWKn2dRt5c+rir8O3aWysB3KFp3U1AE9tOtXPfWY2dgJhg3Nk1SvNxdUmE3oLl7oqaVv91DepJNaV2A2AgAAAEDXIswDzoOrgm5rUPJPPO9AT6FPddjc1o3tfGKGo4pwi4LmdUmrysLPNfV7ZxV6+xpNqzXbOlFLk06Y29CtVCy6RrtCZzV6ZlhlZiMAAAAAdKFLcnJyvjI3tsbv9+vEiRM6d+6c2XRBddfzUrc+t+W6p3aqcs3NUfV61TXkz+wf0p7lQ7StJrpB2Uv2q2xUk+t+w1YHdUeepJZdqpg0XY2uvr7ofZt3L9Nzjgql7CX7VXbTQVVMOqpCx3HNfl2vROWBicras0IzolV0+Zr/0mwN9wW1xRVgRbZHfg6r7tkZWro92iGqpDygib3qtOInSxVfm+c45ok7FZjgj7YEtxZrzhpn39SOmT+vSrNHZsQ2BLeoeI4jehs3X1UPDVfT1mIdGBTQxMghQymcY4LqwlaPWVquwIQs1/nG7mNeW+t4jivhbh83X1UP3aAPn52hYxNaP/+yRSc1/3uXaf3tXlV5ZRq/6XGNPLleizf204NzRyvTbvF6Pbb22o4YtjqoO/q4/13EtOWYdt+ekZ/j/21K9px4jv3E/Ru325s3+nVwqP3vVvH/dltnvleYzPcWx/uEzXyMbXlviQxfjqpfr8Uz50Z/bNd7y30tapjUrPpNOfrBC2YjAAAAAHQNKvO+9ubqZXuerordIfsLdmTeLmPurlk1Wlg7VZmOub0qdksj5yafLD/yZbtho1+LHV+2h60O2l/M7WMt3yWNelwPLjHqXnqOVlnteJ1abvfbWK/MUY8nPeYF5aqsK1F5YLaGn94SrVRbsUca/lBsgQfnMNWJfkm+4ZrtGKZaNS8/tm9JGSNnKzBB2hLdX1j+Cc4FI1o/pqIBmVT3bKSCrlgrThd4LnbhnxDQREX2t0VB33CVGefVunzNfymg2SOboudeXLxFQf9EBV6ar0R7iwR5VrWfEdTZwWHk/LcE/ZoYN6w3Q8MfCqjgdKSfdf6z4yoov9RtN52VDl3hEeQ55E3VwrmDVJ/k9djaa9uaQ85a7OKOvMhrPLYARty/gVaPuVz31Nqhn+vf5n6NL3Tsxw7q5Jyfb3mTxqxe7uhkyZ0c1B2K7G+9GnqO1j+Z55VUG95btFz31NqhpnHNFnqcW0Si95bsJfu1cHKW9kSuV8F6NeRNjd9XW99bXrhC9ZLyhnxutgAAAABAlyHMQ4rKNL4wT6pf76paaVzwvPa0SLmFa5Xt6m/JXrI/+mX75VWOhsK1GpMnNWx0fKGvma5/3x1S5qgpcRPlN2x0VBit2qsGSZnXtyVYkL7/iw2qrq5OcNugRf9o3qNt8ueVabhPCn+0I1rxlT+vQH4FtcVRebbziQrVhTI0fIIVJjmHqW4J2lVj0bCrOL7CLVSnFY5Qa+euDxVWhq62q85SOaYk9e+VIYU+1A5Htd7OJ2YYFX42V/VcpQ4EpYyBYxMGcJ5K79RwX1h1zzor6yo1Z2tQ8g3XnR4hokrLo0GeeR1KJgxXRqhOFY7tlXO2KCi/CsygMbjFcX/r/NWrr/v8C85pkE+q33+5c6uHer1akOT1mMJru3HBkGio9Wq9XVXmCLriK8OSHzN7yXjlql6vOirPrH+bPo2c7Aiw8rKUqZDqtzv2XzNdzznuF+WqZJurg/VS5k3f9/x3fr6i5++srLOvmfLGuwNJW8L3Fi1X4Sifmnc/76hKnKuXN9Z77qtt7y2Xa+8hSX3+xlBbAAAAABcMYR5SU/h95fWUmk8eMhoqtO/9kNQzS9cZLZFhhvFftqXscYOUqXodNLY3Hm+SlKVs1xfu+H7t8YdfTlFRUVGC2xQt+k/zHq3LGDk7WkEXqXJzDrsdOzBDCh4w5ozbqWOnPcKkVJ0+5h4eun2pZhRHhtmmfszDp8NWFWCSqriI4MHzn/XOWtyjScfM4cVrDigoKes64yxGx1b2NYM8qUSD/e7g1HJYn4akjF79XVtTOv8Bf5NPPdRkvsRNcfPbWRVokQCuba/tFCU9ZpmG3eST6vcaK+BWqPGkpD79YgFcfZOa5Yuv2PPQ8I5HwNcp7POPe4xS4/aDapZPvR2jZdXKe4tmjVCuGVgq9tjd+4p/nlpTf7KH5PubjFMCAAAAgC5DmIc2aT5uVgxFmCFFnkaO8kkK6VS9c7vluj4+SXm6wzG0cGFt0D3HVRqILvSwNWgN53RUvkn9dbVP1qIYxgqv0bnbOlzqx9z5xAzrvJ3DeuOGnnawJIt7uAO4DA0faZ1w0wkzyJM0rq+yjDDVujnnCbwwuv61PUC9e9pDcY1jOuefk+wqvIL1apBPI+dG+tXEVcJeECePJpyPz10pl/y9Jfv6LMn1+Oyba55AAAAAAEhfhHnoIE1qdE20X69XC5ZZw/w8qoBOnPSaQyty85i0vwN06jDbNXOsIbL+Ase8dFaVmIKxuetcN48FGM5fG4+5Zo57iG9HrMbbTuHTzpgvrLpnrXPyTwjEz+O3/Zia4lbNddycC2p0sa5/bR/SqRZ7WGzc8dxzyVlic9kt3lhvB4/dJNBLwP1HhOTvLVYFZMgxX577FlfJBwAAAABphjAPUUmHAdb8QfUtUu5QczL6REP8JKlC2yZFqoDcYUHSY3WSzhhm61S5tU5hV3Ve/NDWztf+Y1bOsQO9dtw3FZUHg5LvBo11LMIhSSodLL/C+nBXfLRZOWeF6kIyFvhQwuG05+XQNxTSWWUNMBvaputf2x7DaVO1qtAO9Dr3fJNfE3uoft6IuEAx0ZDlZO8t3sNpO05en7NS6BvyKAoEAAAAgC5BmIeYyHxazgnzoyq0raZeypvqWukxe8kDGtkzpD0bE82vNVcvL9+lZuXpjk2ORTJWbbAra7p3RVCbbF+qWqM6r3JrncKeK6d2ntSOma/5L5mrvlrz0MXNyddR1my2FuEodc7RV6LyCX4pWKul5lx6kqSdWvqTLQoqQ8Mfcp7vTi3dHpT8E+NW+2232it0MNQBK5VegNf2vo271NxztMrM1VoN2Uv2x63UOmxonkdlbQdL+t4iNS7Ypgbl6Q7n+Reu1T+N8ql59waPPxQo8XtLzXS9WS/lTo6v2jt/n2vEAEknv6FEEw4AAAAAQGcjzENMzXQ9t9EK7GJzTTkCCbuKJ3dybB6qslFN7lU2vUT223O0yqL7q9C2SX69Wu8xt1grgUR3Fledt32pZhRvUdBjDru4oaMdJaVj7tTSnxzQYFf7RGXtWdGJQ1R3aulPVqhOjjn6UjpmpeY8W6ew/JoYcFTorZmj4mfrpLh588wqvlRdqjfe7yENOKcnzaY2uQCv7chceB7z5jnDu8YFQ3RwqLv9jj67VFHgWHm3M7T23qK5etk8/7mj1bzRa2VfB8/3FmnfTL8qdit+3jxn6Nce951Tnnpo16bWVjwGAAAAgM5zSU5Ozlfmxtb4/X6dOHFC586dM5suqO56Xurm5wYg4nO9/lqj8g5lK/d+Ahs4fal1G45p9EleGwAAAAAuLCrzACDqcq1/u4c0oFGv32e24eusbNEnGu2jKg8AAADAhUeYBwAOFYv6aP0hKW/SSa0rMFvxtXRfi+Z/76zqN/XRtFqzEQAAAAC6FsNsu0h3PjcAJmtI5aD3++qWRZeajV9zy3VP7VTlmptNLbtUMWm6Gs3taYfXAgAAAIDuhTCvi3TncwMAAAAAAEB6YJgtAAAAAAAAkCYI8wAAAAAAAIA0QZgHAAAAAAAApAnCPAAAAAAAACBNEOYBAAAAAAAAaYIwDwAAAAAAAEgThHnocNlL9mthbY2GmQ0X2rj5qgoEVF5qNhhKyxUIBGK38hKzR4fLn1elQKBcyY+Ur/kvOc4rUKX548w+DvbjbX2/neFzvf7aEb1+n7G5IKx3XzupdQXGdgAAAAAAkBLCPER12xCuq62Zo+LiYhUXr1BdyGy8kHZq6U+KrXPbGjQbO1VJeUCBl+Yr32zw9KXWbWhUXqi31r9gNNVmaNuhsxr98xY9aTQBAAAAAIDWEeYBF6vtSzWjuFjFxXNUabZ1oidXHtNoX6bWT8lQhdko6bH7+2pXqFlTN4RVZjYCAAAAAICkCPMAdJyCsMYPkOo39dRjZlvUpZq2urdCvlN6cNGXZiMAAAAAAEjikpycnK/Mja3x+/06ceKEzp07ZzZdUN31vNStz2257qmdqlxzc1S9Xi0o1L7oz2b/kPYsH6JtNdENyl6yX2Wjmlz3G7Y6qDvyJLXsUsWk6Wp09fVF79u8e5meWxCr58pesl9lNx1UxaSjKnQc1+yXknHzVfXQcDVtLdaBQQFN9NvbQ3Va8ZOl2ml0t+aom63hp7eoeI53bVtJuWM/khRM0Le0XIEJjo5Gv/x5VZo9sklbHFV00X17nV9puQITslT37Awt3e5siD3OjMjPXve3WceN9nSfl7kfk8d+n1x5RFP79NbSBFV5Tk+uPKKpAzK1/vZkwR8AAAAAAHCiMu9rb65eLvBrcYFfFbtDdnhn/WzdHEHerBotrJ2qzN3Lou0Vu6WRc4O6Z5Z7r06RIK9ho1+LHUHesNVBO/Szj7V8lzTqcT24xBh82XO0ymrH69Ryu9/GemWOejzpMRMLK2tcQBO1xZ4Xb4uCvuGa3Y5FLvLnVWnwQXsOu+JiFT9bp7B/YtyCGSXlAQUm+BXc6uh7cHDShTgiQV5wa7GKEwRxCUWH1xZrS5Kp9awgT6p7NnZeK04XxM7L3E+oTisi51/sdV6fa8QAKfT+Fa0GeZL02P5MSc0aYS6SAQAAAAAAEiLMQ4rKNL4wT6pf76qIa1zwvPa0SLmFa5Xt6m/JXrI/GuS9vMrRULhWY/Kkho2OsLBmuv59d0iZo6bELcLRsNFR/bdqrxokZV7fnhnXMpThqrSr1OY9YclfkHxlWA87n5ihOWscG7YvVW1Qkn9wbPXYcfNVYIdyrr5r5rh/dsifVxUN8hL16Qj9e2VIoQ+1w1HZF/eY2uK+c8pTDx3ceanZ4u2FK1QvKeubDLUFAAAAACBVhHlITeH3lddTaj55yGio0L73Q1LPLF1ntESG0MYFeZKyxw1Spup10NjeeLxJUpayC51b4/udj+BB9zDYnSeaJGXoaudw2XY6fDrs+jl/9A3KUFAHUgzI+trDXjs7yFPkXH3DNTvlVWqTK/vmF5Iu09FasyWRb6gpJPn6/M1sAAAAAAAACRDmoU2ajycaQGkGcHkaOconKaRT9c7tluv6+CTl6Y7aoBY6b5PzzK6dL/ip3BFcqkpUHggo4Li55p+LVr99qsOurYn4NXxkhqSwPk0yPLaj7Hxihoq3Bq1AL/IY2jHcGAAAAAAAdB3CPHSQJjU6FsGw5t5bpj0tPo2cu1/jXUGfdOKk1/x8kZt7QY1O579aGW0O0EpUHpgovzGP3Io97ljQqn67Wv1dWxMJakvxCtWFMjT8oao2D/ttlzVzoue+JSjJY84/AAAAAADQfRDmIcp7iKut5g+qb5Fyhy43Gso07CafVL/XseJtRIW2TVqvBvk0cm6Nax68pMc6DyXlVoVZ1bzUB46WDPJLatIxc1XYZEoHyy8puN1cBMLNGsLr1+Aki1247dTSn2xRUBka/lB5bO69LlA5xw70evWNG3abSihZ8ZfLJH2hfgVmSyJ/U5ZPCp38htkAAAAAAAASIMxDTH2TmuXTyMlmYCcrmKupl/KmulaRzV7ygEb2DGnPxrnOzg5z9fLyXWpWnu7Y5FgkY9UGu2rPHfKdnxINtue9yxg4Ni6Q8lRabi82MUfumfRaYQ/N9Q+KxW0l5fHDbLVms+pCkn+CUWlXWp5kNdtKzXm2TmH5NbGD5rOLl6/5L5lhoX39Th+LCygjoWRBspD0hStUr7MalJ/ighb3nVOepKa/pLhgBgAAAAAA0CU5OTlfmRtb4/f7deLECZ07d85suqC663mpm5+by6waY966er1a4FhxtrX26MIXTQnu5+4/bHVQd5jT5NWv1+KZVjjouS8t1z21U5W5e5lrZV3ZgdpEvxTes0IznjAjqXzNf2m2hvuc28Kqe3aGljqq8iL78OJamKK0XIEJsY7hPStUoTLNHtmkLcXucDBun0HnirrWCrZx94vuP2htHzdfVQ8NlxEXWkJ1WvETq0rQ2pdnL+O62EOFE7a7xe3XccyIJ1ce0dQ+vbV0SoYSza4Y0Za+AAAAAADAQpjXRbrzuQEdpiCsd39+Snq7r25ZlKTizu7XtClHP3jBbAQAAAAAAIkwzBZAx6nN0LZDku97n2hdwrnzvtS6mafkC/XWeoI8AAAAAADahDAPQId67P6+2hU6q9E/b9GTZqOkJ1ce02hfptYzvBYAAAAAgDYjzAPQwS7VtCnZqlezRtxnNBWENX5AD+36VU89ZjQBAAAAAIDWMWdeF+nO5wYAAAAAAID0QGUeAAAAAAAAkCYI8wAAAAAAAIA0QZgHAAAAAAAApAnCPAAAAAAAACBNEOYBAAAAAAAAaYIwDwAAAAAAAEgThHkAAAAAAABAmiDMAwAAAAAAANIEYR4AAAAAAACQJgjzAAAAAAAAgDRBmAcAAAAAAACkCcI8AAAAAAAAIE0Q5gEAAAAAAABpgjAPAAAAAAAASBOEeQAAAAAAAECaIMwDAAAAAAAA0gRhHgAAAAAAAJAmCPMAAAAAAACANEGYBwAAAAAAAKQJwjwAAAAAAAAgTRDmAQAAAAAAAGmCMA8AAAAAAABIE4R5AAAAAAAAQJogzAMAAAAAAADSBGEeAAAAAAAAkCYI8wAAAAAAAIA0QZgHAAAAAAAApAnCPAAAAAAAACBNEOYBAAAAAAAAaeKSnJycr8yNrfH7/Tpx4oTOnTtnNl1Q3fW81M3PDeh4n+v11xqlTTn6wQtmmzT2tiI9PMyn8L5q/fiNkNkMtG7wGL1S2M+x4ag2P/2m1ji2JHXtzfq36bcoI/Jz6F395sX3tMPdKybSv7V+AIC08OTKI5qqbOXef7nZBABAt0dlHjpHn0f04sxKLbvRbMDF70ut29CovFBvrfcI8r4uSot/pFfuvVljzQacPzvIC++r1l1P/86+tSHIk6SP39OP7ftuPmI2povluqc2qAeXlJkN7TJsdVALN61VttmQJvLnVSkQKFeJ2dAe4+arKhBQeanZAOBi8dim3goNaNS7i740mwAA6PaozOsi3fncOkWfR/TipCFq2lGixz8wG7u3kvKAJvrNrUFtKZ6jSnMz4jy58oimDsjU+tt76jGzMcIOYw7X/E7/csBs7KdfPzJG/Y+8qbsCR83GtFFa/CPdeTVVXJ2htPhHujOnjZV4SaT2XHXH1+Vy3VM7VZm7l+m5BRVmY5sNWx3UHX12qWLSdDWajWkgf16VZo9s6pj36nHzVfXQcDVtLdacjniRdYCS8oAm9qrTip8s1U5nQ2m5AhP8Cm4t1ubrqjR7ZLTe1ENQW4o3q+9LszXcZ7Y5BLeoeE5lgs/DsOqenaGl283tKbCva+wME+2rROWBiYod2uyXr/kJHkN4zwrNeMJ1hVrl/TjNz/3Ex1TIeF5SeJzW69XruYr0Na9BvPY81vhr670f85q4+kQfn/m47Gt0eouK5xxOfL0i7NdZ5DXsJRj5N5jSMRX32Exxj/W+FjVMalZ9gpEEAAB0V1TmAV5CdVpRXKzi4mIVF29RUH5N7KiKj4tZQVjjB0j1m5IEeUBHCH2qw+Y24Gtu5xMz7M+tyGeXFV7Ets1RpXZq6U8iPxereGvQDpAc2+Y44lDX52GxtgQzNPyhgKrm5TsP3bpx81X10A360HEca19Vmj/O6BeYKH9wS/J+ssMgx7kVFxfHhVIpS/Vz37gexcXFKnYGeaXlCjw0XHJd9wqp1GNf5nUvLlZxcSSoqtQcx/YVe8J2wHgej7W0XAHj2hYXF6tCdzqubYnKA3ZwHOnzbJ00crYC5e5HEA5JwyfEPypLG19ndnDnvhbxYXryY7bjmr3QU+sPSXmTWvSkuwUAgG6Nyrwu0p3PTRqlR6f9VENbtmnaf31TL04aoh52y9mDv9W9b+2O73tV5OezemfTLD110vppelGlivo6uhsaIpV6CSr3phdVqqjnfq1c97TekqQbf6l1Y/vonU2zdPw7zn0fUfXqX2itJOluLZs5XtpRouprVun+QZGzd/ZJnVf1Q+Qv6NG/EEeYf02O/JXZxfwruPlXZfuY2qLirX1df82PO15rfy2PnOvAD7XiJ8d0p+O4Zr9oX2dlgOf5x/fz2pciVXl9emvplAy1v06oDRVQ5rxnnvOm+bTg3iKN8KgOcM/ZZx832hrS3rXVWvJx5Ger/Vpjnj9r/r8W67hx52No53xrkTkGo4xr4zqH6Fbv8431j+3Pe+5C83qkcm3Na2Yxj2eef4RVcRf72fu8Wquk837c3tfIknx/F0b2kv0qG+W4ZvXrtXjmXO82Q7NZqTerRgsn5zl61OvVgkLtk6TCtXpw7mhlOlpdWmKVetZxm2L3lRJWB8ado+P82yyuyslZMWW+v5qM6qq4fbnfj833V5NZJWRW7nl9fsSfY/xnQCq89+2uzHN/XljHzUrwfh1VWq7AhCzPc/I+ZqRCzaxcawf7OspxjkmPeTryGWX+fH68jhn/uW8fU+a5OaXSx2LtX57X3cv5V57ar8MEn/MRCY/jfJ0FI89bnZpGXq0D0b5Jnpckr7PEr2GH6Gsl9WMmfCymgrDe/fkp6e2+umXRpWYrAADdEpV5iOk7XusmfUsfbSrRtNUlmrbjiHoM+qlj3ru7tWymHfqttvqsPCgNnbRKj/axeqyttu+7ab/O2uFdpO+01e0dcttDQydVqkiR4/5W75zJUdG0R3Sro1fu2Erdn7k9aZ/zE9anwdhP+fOq7F9MI3/x3aKgf6Lxl2vHL8/RvwzX6urS+YqrafBPVMBRtbBiT1j+Cc5KhNT/Wi7fcM0OFOjTyLltDSpj5GzX/E+xLxKOv2KfLoibI6qkPGD/Muw+ZnxVxucaMUAKvX/FeQR5qRt7W5FemX6LPq6JzJn2O20+0k93PlKkBddGetlhk97Vb+w+v9lnBTyHa34XC3sGj9ErdgAU2ddv9kkjpv9Ivx4cPWTrzHnYQrHj3vX073RXO8IiK4SS9q6N7ec3n9zStvOK8mnBvT+K298LusVxzWLXo/+RNx1z0h3R4GLnghP99OtHijTi01gf65o5r3/q5x8bOhvr9/o1+dF9jb2tSK888iO98ogd+Plu0cP2z6888iP9222Jw610YwVh0p7lfi0usG4VJ8frnllWe+OCIfb29Wqww7tIv8UFfneQV7hWDw7d62hfpj0tebqjtkbDJKlmup6z216tt8M7x74Wt2PIbWvn3yaOsCf6HvrspyqIvufFKnG8qnCsSrSIEpWXShWOdrPiq3JO7H0u7FEplDBoSKgNnwFpY6eOnTa3dZQSDfZL4Y92GIHlndZwTf9gj+q2zuT+3E+Z72rHH0K6idLB8ksKHkwWa5XozpEZUvBAfPi15oCCkvyDnM/ADh0I+lUQ9/tAZ+qEY9ZeoYMhyXfTOXXMDKQAAHQ+wjw4HFH16liVnT54Xw2Ssq4ZJUm69dZxytURVVf/PnqPt96q0jtnemjod+6ObusMZw/+VtOix92tt46cla7KVK6z05n9Wtlan/YYN19lIzOk0IfaEf1rsvULb3hPheMvzJWaszUo+QtiAdy4vsqK++W5UnM8/2LvrtbY+UStgsrQDaOtX1jz5xXIr6C2OO+7fakq9oTdx7QFtzr++m3/Ep51XeyX3/69zMdkDdFyfVkdN18Ffim41fGF2D5mxsg73V+q7junPPXQwZ1d8VftfrrTXg3XOefemsCbOiyfRoyxQ6dr++kffNLhP8ZCtB1vvKvDkvoPjARTPi34bj/pyJuuSq4db+zU3pDU/7sXdhGL/tf4pFCDdjiq3Xa84X7cKRt8i0b44qvndrzxpuPn2PVwV88d1b+4qgFvUX8d1WbHNuuaOa5/yufvU9+rJR054qqaWxOIneeON2JBq1dQ6lXBl66u6+OTWg5qX01sW+OCIXp5lbNXimqm6zlXRVyFttXUS8rToPaEaylI5fy//4sNqq6uTnDboEX/aHf0X60MhfXhLsc75valmmFW/aQk/r23cmudwo732Q7Xps+AdJGvvr06aKi7/2plSGo6YV8N+3pFf47+4UzasjUoKUt9nZ91/okKBALRW/wfmdrJ83M/FTu1dHtQkl8TA4H4P7RdQCWD/JKCOpAskPZ8vUYc1qceb7OVW+ukgWO7NJzu+GNeqjfe7yH5/iZnDTMAAN0ZYR5izjSrwbXh93p8dYk9zHaUbs3pIR173xi2ulvHWyT1/GYHVsDFa/rEOdRXeuutWZpmDKE9e2S3NTS3I/iGa3bkC0KkKsQ1J85g+c0vmJIU/FRhZejqyHiq7cfUJMk/IYVVEeO+NFi/OGf06i8pX2MHZnh+edq560P3MaXWf2GXdPh02HqcLyWuEMkffYMyPPa180RT3Jeqsm9+IekyHa119uwkg3PUX9LHp8xvFkd14Iikq31WAJdlfVH0Ev6kxfofO/CL/hwV0o5DoQteYXH4k5BVhdYBK+OWDuwXF6zFiQSgH8UPg43xaewAX1z4JoV07FPH9U/5/O375YzRK67qv6+nEydDUs/RKuuslWXrm9RsbutAqZz/H345RUVFRQluU7ToP+2O9nuq53xpHcF+j+40bfkMSIXzsylyS7BwQGcpKZ+t4b6w6tacbyBZovIJyQKmfM1/KaDZvWqNCkvFz8dWHKtAb3eA1trnvle/yM15zDVzVFy8QnUhZ9joNV+eJFnzD7r2lbBvN9Grr/t3hu1LVXt6uO7sgNe3f4J5LRL8u+/AY0ZU/OUySV+oX4HZAgBA90SYhxTlKPMqeyjuzErXLdkceWkrOsG1NYG4WYWWf12W9y/hrrmYZA8Bs36pj/2SmuCX01ScPhb/xcLmrLpLxc4nZlgTUju/mBhfgvr3yohVGDhvXfzl0VtInyb6Fh4J4A68G1ddZ1WUhfTf77uDwPhgMKKn+jqHoHaxHW9U666ao+5hpe0KvOzqt09DyYf6Zl2tjGTXVpLUU1f77PDNMdQ1OgTWIdXzXxOwh0A79nkxDZ1ti8YFQ7R4Y70ViNUGtbA2qIWrl5vdUjZstb2PyC3ZHHkdoEPPf/tSzSjeoqDr/bb9YUf+vCojLEg2315H6ODPAK/FF7a2ZxxoGxjhlTXVg8e8Z20SmUcwrLpnzaAu0j5bN3y0Im4etITWzNGW4HkMxW3lcz/K6zmIO0dH2Lg1VqkXH+h6LYDhdT26EY/fQyoPBuUfl/gPg6kyh7XHFgOJ11HHBAAgXRHmIUVH1HxG0rHYfHmuW2TBiouOPXRW7vlZrMo0r1/CrZt7XiXHL/XPWkO6OqPKxDksKWVr5kTP2foS5J7z7/BprzmoWv8l+4KLVjDaoZMjSLLmb4tfpCGxFh1LuW8nORCbl27zkfZWsMVXzXlq+lRh+XR1ltng1GINt3LNqee4mXMDpnj+saG01dobkjKGFX1tAz2tKozON/dqvaS8qe0KxIatDuqOvJBr/rrFy3d1amWe1Pr5pzzMVnKvUBkNRtoe6DkXNIi9j1nBTefqms+ATmOGV17Vam2Sr/kvWSGqazoIOSsZJ0pb3SuPWn9Ea9KxJJ871meWMRS3zbw/99ttzZzo6+xChk/WtfFrcFyg6GBff+8/DvbX1T4pfNocHyBpzWbV6QaNPa/r3kYX4pgAAHQjhHlIURuH0578i/ULoT3fXmru1s3dscpvzWbVhYy/0pvDaVO1falm2F/mWr3vuLG6wReZu2andnwU9qw4SDQUtq0q59iBnmMIjddw2kS6dIjKgSM6LJ/+4SYz6OmnwTlS+NBR7XDO6+YKm4wg7+Oj+u+Qcw69iERDSZ3sPh6s4aUdP0R3TcAOxFoL5eyhyE7WOeVqbLJKw49D+tg1p6CXFINBD6mdf0hLXrQDvWt6mo3tkPh56ljWsMCAZwVO++2baQdiffoZw1YP6VSLlNlngGtrzHINypNUv03bHPPXJWINj83SdWZDMrNGtDovqdf5pzzM1rRmjh3oxb8vJX+/ikxVUKfNif9BxyQNNRKxFm9IqpXPgJJy6/XTYXO/dTuRlXC9V2uXKnUgaAWI7ufJfv68FmaIijzH5pQV7eD1uZ/mrCk5zAUsTNb193zciaYXkezfUaQbRpufOp2pY4/ZpVOFAADQAQjzkLK1/7VfZ68aovuLUlnswqrk6zFovKabTYqFfbn9I/u6W8tmjm/1S+GFEZvQOvpX+u1LVRuUsdqsh9LyuC9lVvjW2gp5+ZpfOlwZji801oIYfk10DoW1J+kO79mc5AuOl3zNf8msbLG/iDqH0KzZrLpQhoY/ZPb18MIVqtdZDcr/0mzpBEe1eV9IGcNiq51KUmnxGPXXUb1uL4aw41RLCsNkQ1ryx6NSzhjXCqtjb8u3Fot4MzJ3nFWNljGgnx1C2SvlJsiIrGP30w/Oq7LMpwX3jpE7F7ICS+dw2cixBkfOf/AYvVIYH8ZZi3/4NGK6e59jbxvjuI7WtVXOGKMqrp9+7aimW/Pmuwr7btHDHhV2Mamdv9RPvzbn1Es4l2Fr2vY8dSyrckXnVYFTpvGb7JVmo+xQ7uRRY2XZCjWelJQ3XuMLXQ02K+xT3ojY/mbVJBxm23i8SVKexizxXs8x0h5dOGNWjRZONqeLb8v5ty5/XlVcMGpN5O9RoRWZX2+C17uVvQKrz1HJM26+qhIOs7XnLPUKNeSoIIsGI5Fho4Y2fQbEwsCMDp3cv7toLcizVG6tU9g3XGWO62bN0xfUlrjhrDEdN5efvD/3U1Kico95aK0FrKTg9o44t3aKLpjlrsCXpPx55bEVnbfWKezxu0bVBL+x6Jfbzidq1TSyQDeYDZ2o4475pW676awU+obqzSYAALqpS3Jycr4yN7bG7/frxIkTOnfunNl0QXXX81I3PzdplB6d9lMN1X6tbHW4rHfo1rCjRI9/YGz06Ovq1+cRvThpiHo42qqvWaX7c/4cO48bf6l1Y3MS7D/COk7Wwd/ai3VYbr11le4fdFLVxkIZrSkpt+cEcg0linwJCWqLYz6byLAtl5D7vvF93PtQ5Jjmt8DgFo95eOK/MJpfiqzjNRnHsO6XtWeFY9hS/L7CrvaYVM/vyZVHNLVPby2dkqEKV0tb9NOvHxkTV1Um2cM6XSuqFunhYY6UJvSufmMM8Swtjp/HTYrfV3wAdlSbn37TqMpzn1t4X7V+fOoWvVIoj76pnV/r4q9HeF913Oqt7mMd1ean31Xfe4v0D4fMvvHhltf+2nM9Ig7X/M6xWm18H8/jXXuz/m36La45J937iSkt/pHuvDrZtWz9eYp7bhw8zy9F0X/vxvtA2yzXPbVTXe+dzbuX6bkFXv+qyjR+0+Ma6ShgdPc19tWySxWrpH+aO1rNG/1xK+RmL9mvslGO69KySxWTpkdDOHd7vV4t2KDsTY8r7/0kx4w7p7aJe/9Jdm1Ly405PZ3vt7EwKdZ2QIPj3hsj4t8jXe+34+aryjFPanBrsTZfV6XZAz9s82dAROSxer0Xe382xR6z+Vng/b7vobRcgQlZrtXUIxIesz3inhsn92ru5rWNv2bxz03S10UrvB+n+blvvn4cnMeOO3d5nL/X6yLCuBY278/2dvA4v/jXW/z19Xrty7hf9N+qx+8HyV5nyV4b0eO245gpX7OCsN79+Sk1bcrRD14wGwEA6J4I87pIdz43XHjeXyTSkP0Lsd7uq1sWXWq2djkryAvFz5FnB1XnE9oAniJflD2+WAIAup+O+UMkAABdi2G2ADpObYa2HZJ83/tE67pi7ryk7NVbQw3aYS5g0fSpwsYm4PzZw+OVfDggAKCbuK9FUwdI9a8T5AEA0gthHoAO9dj9fbUrdFajf96iJ83GLmUv0hC34INPCybcogyF9N/vU5WHjpE/r0qBwGwNV51WtDakCwBw4RWE9e6kZoXe7svwWgBA2mGYbRfpzueGC++iGWYb9blef61R6gbzz3jOmdeuuesAAC4e8695ugDDzuPmWvTkPT9d+oif287TecwneDF7cuURTVW2cu+/3GwCAKDbI8zrIt353AAAAAAAAJAeGGYLAAAAAAAApAnCPAAAAAAAACBNEOZ1kWAwyBBbAAAAAAAAnBfCPAAAAAAAACBNEOYBAAAAAAAAaYIwDwAAAAAAAEgThHlAVxg7Q3kbntGQDQ/rSrMNAAAAAAAgRYR5aKO7tWxmpV68dZTZ8LV02WOLCegAAAAAAECXIczDBfJDXb/hGQ3xuj31Q7Nz+ttRpfopP9P+Kb/RZ2YbAAAAAABAigjzcGE1VGv/lJ+5b4/+h9kLAAAAAAAAki7Jycn5ytzYGr/frxMnTujcuXNm0wXVXc/LbZQenfZTDb0q8vNZvbNplp46af10662rdP+gHtKxbZpW/fvovRJtt4a9jldu9Ocjql79C6119Gi9j9WuHSWqvsY+jtEvevwEzh78re59a7e5OYkf6voNRerdUJ0kvLP7KKTjzy/UqR2tbR+o3v96v66PXluz3XLZY4t14whf9Ofw3pWqf/Kj6M9XPvWMBqha+1/NVt4DI5Rhbz9V/TMdr5Tj+Ik06FCkAm/sDNc+dGavPvjnKn3h6m8z+zr3E23/lpqfX6hzdzyjAZEnNNk+WzG9qFJFfR0b4l5fFrNf259vh1k1Wjg5L/Zz/XotnjnX2cNWovLARPlDdVrxk6XaaTYDAAAAAPA1RJjXpexQzRGYWCGZXIGeFZw4Qr4+j+jFSUPUwwxabvyl1o3NMQKYu7WsSHo88rN9XznCF2v/zkDPEfad2a+V657WW5HQUZGfI6y+WecT5kgphnmOgMvR78qnntGAXCOoi/RzBVsD1fup7yn0aCzosu4bH7bJEehZfeQKA60AUHHhoLX9E3folsCVTz2jAb28g7dIwBgLDD0epyPsiwWQKV5HD7feukpFn8zS4x/YGxK8zuJfL9L0olW6/r9ir9lUZS/Zr7JR0p7lQ7StRpKW657aqcr1CvRKyxWY4JcUVt2zM7R0u7sZAAAAAICvI4bZdqFbbx2nXB1RtSMoeeutKr1zpoeGfufu6La11b+1thU+ols1So8WDlGPM/u10lUxNUqPDjODPEn6fSzIkzT9O9Z9X3IEb2urt6lBObrNXMQiGuRJ0m49te+IdNW3dGsfd7cutaNK9dUNUm6Rri+RVPKwBuRKp6rdodqVd5hBniR9pFOOIE9jZyg7VzpV7QjedlTpf/aGlDGiyFjEwh0WfvHkTp2ST5mjBrp6dYwfqs8In8J7V0aDPEn67NFqnZJP199hzCHYUO2oJPwPtTRI6pWty9y9WvXWW44gT5JOPq03jknqe5OmRzeO0vU9JR1731Xtuba67UGetFyFo3xq3v28HeRJ0ly9vLFeyhuv8YXu3lpzQEFJCn2oHQR5AAAAAABIhHldaZRuzekRF4pIu3W8RVLPb+pWx7anavbr7FVDdP/Mn2roVWf1To2zOk5Sn1EaeJXUcDh+SGTM3bq5r3T2yG73fXVEzWekHpk5rq1x/U4166x6KDPxeNLzl1sUtwBG3mNGYFb5Gx1qkHoXPaMhRblSQ7Ur9JJ+qJ65Uvijt+Mq3pwuG/UtZahBLa77Sl80fiLpGl0x1rHxzJ8Vcg3PbdDnZ6SMXrHByh2m5Gb1lvTXxthQX4t3UHfqvbZV4LVFQ/NZY4v9+uw7XuuKYoFzu8waoVyFVL+9wr29vknN8qm3Y+StpVJziotVzBBbAAAAAACiCPO6TI4yr7JDkZmVrptrzrKIk0/rpYNWsHL2YFV8FVTvTPXQWTWfMrY79fmmsiT1GPRT45jOOfsuMI8FMJzz10VYVWqy5pEzh5OOzdbfe4Zhbpf18knK1QBz9dyiTgjo2iykz4PmNttVvdpcdZeau7XMeC16zYu4trpEKw+edb12XzSrOlOQfX2WJJ9Gzg1qYa3jNne0Ms3OAAAAAADAE2Fel7Gq4XRsm6atLom/ueals+bDu39QDzUcO6Ieg36qZTc6G1Osmjv5FzXZixXEHW91iedCB93TQPX+1yL1PtOgU2dyNeBfZ7jDrR2N+qukv89OPgT2i9Mhe1EJY/XcKT/T/inxC2V0G2dOJ604bB97nsQz+7XS8ZpYaQfIprfemmX3+a3eOWMFxG0N9BqPN0kKac9yvxYXxN9eXmXeAwAAAAAAmAjzuozXcNpE7tYye2GLx6u36Z0zUu7YXzrmMYsFdbn9kw199B5Om6pbB35LPXRE7znnVTvPfbbHZY/do+uvCul45W90fEeDdNUI/V/XUFx7COzA7yWtYPMcTpuqsd9T5lXxQ1zPa58Rle8lmI8vteHD7XLjTcqV1LDPCJFbtVtPrbMDvba+BhIOp02kROWBgAIvzVe+2QQAAAAAwNcUYV4XWvtf9jx4SeceG6VHp413LJRhz5+nHBW57vd7VdtDH90VUndrWbSfvYhFXJ8U9HlEPxnUQ2cPbvOe46/vOD3aFQtjlDysG0f4FN77slU5Z8+flzHiHvWOBmgf6ZQd8t34lHOxiIHq/ZSjiq+yWsfP+HT9Aw8bi120ZqB6l1gLbJw05ttT8LTCXotUtMl/6OTekPGYpCufKlJvNajRY9jxeTvVrLNGGDy9yGuY7d1aNu0RdwBtz9d4tvmIc2vraqbrzXopd/L++MUuvJQOll+SfDdo7DizEQAAAACAr6dLcnJyvjI3tsbv9+vEiRM6d+6c2XRBddfzcrOHNxpbG3aU6PEPrEClqK81NPZexwq0t966ygpazNVrb/yl1o11VkgdUfXqX7gDuD6P6MVJQ+SOac7qnU2RFUmTn1O8UXp0mnvePfN8W/dDXb+hSJ6jhBuqtf/R/5DGzlDeAyOUoQYdmuJYgTZ6X/eKs7H+EUa77cqnntGAuAdrHzOF9jglDxvz7sXO97LHFuvGET5HW0x470rX/IBxfc3Vee3H99fqn7kWALnyqWc0oJe5km8KjNfO2YO/1UuaofsHnXS/hjxeP4lfG63LXrJfZaOMa9KySxWTpqvRtbFE5YGJ8ofqtIJFMAAAAAAAkAjzYLHCvKw2B3IXp3aHYwAAAAAAAJ2MYbYAAAAAAABAmiDMAwAAAAAAANIEYR4AAAAAAACQJpgzDwAAAAAAAEgTVOYBAAAAAAAAaYIwDwAAAAAAAEgThHldxO/364orrjA3AwAAAAAAACkjzAMAAAAAAADSBGEeAAAAAAAAkCYI8wAAAAAAAIA0QZgHoBN8rtdfO6LX7zO3O3zzedXctU01d23Tqm86G3xacO+P9MojRVpwraTBY/TKIz/SK/ferLHObmmvn379yI/0yiNjVCpp7G1F1uMs7md2vLiMeF3nFr2u/2duT0mZvpzdoP8dX2Y2uPzjP2y0X1sbtfQqsxUA0GUKwnr3tZNaV2A2AACA80GYh87R5xG9OLNSy240G3Dx+1LrNjQqL9Rb618w22xX/VKvfHeA6v84XoWvjNesv5gdHJo+VViSPg1ph9l2EdlxqkWSFP7E+u+FduVTz2jIv87QZWbD+fjmOv3vhDxd+sf17fzwqdClO+v15Xfn628jzLaY//zvySp8Zbye+ED6zg+6W6C3XPfUBvXgkuSBZKqGrQ5q4aa1yjYb0kRJeUCBl+Yr32xoh/x5VQoEylViNgC4cGoztO3QWY3+eYueNNsAAEC7XZKTk/OVubE1fr9fJ06c0Llz58ymC6q7npe6+bl1ij6P6MVJQ9S0o0SPf2A2dm8l5QFN9Jtbg9pSPEeV5mbEeXLlEU0dkKn1t/fUY2aj7R//YaPm9X1fT7z+C/2n2SiptPhHujPnqDY//abWXHuz/m36Lco48qbuChw1u6YxnxbcW6QRele/efE97Rg8Rq8U9lN4X7V+/EbI7NzlrnzqGQ3otVcf/HOVvjAb2+VJ/W3RVP3t0Hpd8XKiV0Zqvhr/rj7/rvR3L9yiS5MFwbpXq+4qlv7YSmDcpZbrntqpyty9TM8tqDAb22zY6qDu6LNLFZOmq9FsTAMl5QFN7FWnFT9Zqp1mYxvlz6vS7JFN3ei9ukTlgYnK2rNCM55wPzrrc8b6XDk8r0qzR2a42t2C2lJ8QIMDExX30eQQ3rNCM56Q5r80W8N9ZmtHfIZZj8cfPZbxjI2br6qHhiv2SLyPaX7Geu6rNXHHsgW3qHiOeUQlP/c27ys563Vo7i2sumdnaOn22BbvfvLsa14z97m18jqL/vvKT/DakBQy/w3G93Vet8TnHmE+919q3YZjGq3eWjolQ+f/zgcAANpXHAFc7EJ1WlFcrOLiYhUXb1FQfk2k4qN1BWGNHyDVb0oc5EnSt3zJvgQYPg7p425UsdZp7ArEj09d+CCvM3w1frz+pnpddp5BniRdsu05/V2zT/87ZZ1S+WtUtu82cxPQbex8Yob9WRP5vLGCk9i2OapUpeZEfy7Wij1hOzCJbXMFOcEtjvuvUF3Ir4mBgMpLnUdum5LyJGFiabkCDw2XoucdOabzczNf81+KhJj2uW0NKmPkbFXNa19tZnBr7PEXP1unsH+iAuUen9Slg+VXUHV7wsoYONazEtS1r+ItCvonnkelp/O5WaG6UIaGP1Sl+ePMfmHVPes8brGKi51BXonKA3YgZz7O9la0un6/sW+uIK9E5YHZGi53vwqVRV8/qb1mnS7VtNW9FfKd0oOLvnS1AACA9qEyr4t053OTRunRaT/V0JZtmvZf39SLk4aoh91y9uBvde9bu+P7RoetndU7m2bpqZPWT9OLKlXU19Hd0BCp1EtQuTe9qFJFPfdr5bqn9ZYk3fhLrRvbR+9smqXj33Hu+4iqV/9CayVJd2vZzPHSjhJVX7NK9w+KnL2zT+q8KkUif4UObi3WnDWOzqXlCkxwfL3x/Et+rCLAkuCv7tqi4q19XRUCccfz+Au9WWWQP69Kswd+qBU/OaY7Hcc1+0X7Ov+67nn+8f289qVIVV6f1v/yPvM72zTZ96eElXmp66dfPzJG/aM/29V8Rvu1+6r141O36JXC2Hx0h2t+p385YP8weIxeKeypvWurdWzMj3RnTqSXuT9rbruHhznKFeIqBlM8ZhslfA221dgZyntghKMKpUGHpvxGn3m2Gc44KvVKHtaQomt0/PmFOnfHMxqQG+nk2F+UVZX31R+X6u+2JX5lZC/Zr7JRsWvbnKx6bcTrOjchT9/Ymqtv7DUbI6zKvOwPntJd//2G2djhhq0O6o682M/O8zcfm8l8rOa+VL9ei2fOtf6/cK0enDtamY5ml5ZYpZ5n5Z59/+aNfr28Kna3uHN0HrOt4qqdHJU6cW0Gs0oorr/zPdR8fzXFH7fJ+Dfk9Z4ff0yz0igVrVRM2ZV57n0mvo9T4ipEu6LqtPlebl8n89qmKnrttkgTzPNLfsxo39JyBSZkxX3+JX4sSbTluYz7jL1BHzrPIcG+oq+BBJ+LiXg+Hvt3hfjqNsVdD6eEfez9WZ8HiV8znpV5ir8+TgmPmVDi45tSqdwHAACpoTIPMX3Ha92kb+mjTSWatrpE03YcUY9BP3XMe3e3ls20Q7/VVp+VB6Whk1bp0T5Wj7XV9n037ddZO7yL9J22ur1Dbnto6KRKFSly3N/qnTM5Kpr2iG519ModW6n7M7cn7XN+wvo0GPspf16V/cXE8dfpuKoA+wuUq0qiVleXevxF3T9RgYdu0If2/lbsCcs/wfmXfO+/0Gvk7PhKBN9wzQ4U6NPIudnVD86qjNgv7LG/vK84XRBXuVFSHrC/mLiPGV9J8blGDJBC71+RNMjrMNferH+zQ7O7nv6d7nr6d9p8pJ/utBeUcMoYVqRXCqXNdr/f7Aupf6G9wEaUTyOm/0h36k17f9XaG+qnO6MLb1gLczw8rCW6n7ueflOHc8Z4Ls6R2jFTla+xA61YwT+ofXUiUiys096V2j/lZ9bt+dPKfuqHVvuOKtXb2w812OFdpN+Un2l/3JBbn65/4BkNULXdZ6WOn8nVAHOuvREj9DeF9H/2J35lDFsdVNmoJr1a4NfiAr8WL98ljXo88dxye/fqG5L+dlP3mIXJCt/qY+df4NebfR7Q+EKrvXHBEHv7ejXY4V2k3+ICvyvIy16yX4PeibUtXr5LzXlTtXD1cqtDzXQ9Z7e9Wm+Hd459LW7HkFsryJP2LI/tp+LkeN0zy+yZAjsEiVVpFav42U9VEHmf2r5UM+ztW4IelUJmlVCpVOFo3xJ0VjnFKta8qtXiK4RS0Nr5p6XD+rTdRb/5ml9qhVqef0gYN1Y3+KTgQSNWnFcgvxSthCsZ5JdCH2qHKyAq0Z0jMyT5Ndh84+4wJRrst89v+w59GMrQDaPNzy8P25eqNijJP7id1Xnxmk4kD7vc7Pf9YG18qLbmgILn+3mQVIauTpyQt9tj+zMlNWtEssWxAABASgjz4HBE1atjVXb64H01SMq6ZpQk6dZbxylXR1Rd/fvoPd56q0rvnOmhod+5O7qtM5w9+FtNix53t946cla6KlPRYiBJOrNfK1vr0x7j5qtsZIbxJcT6AhLeU+H4JbtSc7YGJX9BLIAb11dZMr/kVGqO51/F3RV7O5+oVVCxLx3WF6Ogtjjvu32pKvaE3ce0Bbc6/qpu/+KfdV3sC0z/XuZjsobOmJUJBX4puNXxhdg+ZsbIO91fcO47pzz10MGdlzq3dprSMbcoI/SuXnDML7cm8KYOq59+cJtRARV6V79xVNjteL9BYfl0dZa7W3hftaPKLqQdh0KS72qr8m/wLRrhC2nvWmel3lH9S81RyXeL7hwc3WhJ8Zip2akdH4WluNdSG/l7KUMhNe/+KLZtR5XqH/0PZ682Ce9dqf3R+3+k0Ech6aperjDv/92UJzUf1P9JNG9d4VqNyZMaNhZqX2RbzXT9++6QMkdN0TB3b9tj+j+HJPXql2So7SF9csbc1hnKlN1HUv3e2PlL2jdziLbVODakqHHBEFfFnGqm6816SXkjElyL83ddH5/UclD7HOfrPo/va9HvqlVdneD2u0X6fqSr/2plKKwPdzne5bYv1Yw2VDfFxL9fVm6tU9jx3tjhOvT8u4v+uton6fQxj8+e5PLnlWm4L6gtiR6/fb2cf+wqKQ9o9sAPtWVP2H4PzVffXsbxx81XVWCitNUapun8fGqX0nJN9EvB7cbnqz3E9sAaRd9LEw219ZalvnHDY9uiROUT/FL0HFJkh6Th04fNllg426tvGx5HaqzfPST/hMB5DDNO4IUrVC8p65sMtQUA4HwR5iHmTLMaXBt+r8dXl9jDbEfp1pwe0rH3jWGru3W8RVLPb3ZgBVy8pk+cQ32lt96apWnGENqzR3ZbQ3M7gm+4ZgcCCgQCsXmAnF8oSwfLb37Zk6Tgpwo7/6K9/Zia7F+KzYq3OHEVC9Yv6xm9+sf+Qh/6VOav9Tt3feg+ppTSl4bDp8PW40wy707+6BuU4bGvnSea4r7glH3zC0mX6Wits6eXezX0eumzY2+cxxDbfhqcI4UPHTVWuG2xrtk1PV1b41bC/fg9/fjp+CGv5nx1O96o1l12IFc6sJ+kFh372NVFOnBEhyVd29sIEFM8ZqoicxR5VsakKnhaYfl0/QOL1dssJWynvzY6gkFJXzy5UPtdw2zL9FUvSaeP6hJXz5jscYOUqXoddAZYkhqPW6+zbLu6zXTJqZCUmZUkzHtD/xOSrryxWDPNpg5VocaTkpzVcx3sxMl2l1Wl5MTJkNRztMoSroz7By36UZGKihLcfrRIf4h0td8HvecI6wD2+2qn6eDzzxg52/oscdziF1nqTPma/9JE649BiQK5hCJ/uNqcYoWjVUFecNr6zDQ/ryLy51Up8NDVqj3P9zQrcLJv9jBWc38lg/xS8ED0/HeeaJJ8N2hsCs/t4dPWH1Hazpqj0Dq3SHW+V5VohoY/5H5tdHiAZnL+fhO5uapOrWpXq9I19jha/R0mJd9QU0jy9fmb2QAAANqIMA8pylHmVfZQ3JmVrluyOfLSVnTYl1UxYFah5V+X5f1LeNw8UJWaU7xCdSHnl47z+IKYpKqirVUNO5+YoeKtQfcv9sYwsv69rOFPsS8l9s05T2DK7tWqu7ap5q6heueV8ec3h9m1Pl0bGcr6yI8ctyKNSDwt2fnzCFMj4gLE7mhHleqnVOuUPTx2yIZnNGTDw7rS7NfFruvjk5SnO2qDWui8TXZOGtc+q/9rvApf/0S337VNNXc932mh3r6ZflXsDlmBnn3+CYcIt2q57jGuRbL59jpC44IhWryx3gr0IsdtbzC5falmFG9R0PUe2f6AIn9elRF2JJsjrwN08Pm7FwZwDC/uTP6Jjutlz2fnGSYlV1JuzbNX0cpcaJIkf6TSzliMwxCp2lvRjvMxmYtWNI2cbSwMYQ2xdVW3rTlgPbcTWn9Grc/A9ogM97Y+/72q5y1eC2C4r4v1B70OZA5rLy72nBMwtsiF9XuQf0L87wgAAODCIcxDio6o+YykY7H58ly3yIIVFx176Kz8KnDMEWdVpnn9Em7d3JUBO7X0J3bbs9bwsI6q+HBq21w8tjVzoue8JWh/AXT8sm5VJZhzUEVuqU6OHfGiZr0yXoWvvKOhd23TK/9wHiuMRla4dcyX57q5FqToGumz2u5/6HhkDrzqBkm5GnCBAz2r6sw931zs1r6hqhEzv7NNNd+VnntlvApfeUCrzQ4dKDYv3jLtaZEyk835l9By3VM7VbnGPHgVuzu3Mk+StKowerxX681KwzYMs5Vcc9kV2++h7VkR3LnwS+y9xwoXOlfHnP8F45qn1TusaVVpuSb6w6pb4zUthEOkknGCNeer8/PPms7hUx3WTh07bX3GTNQWd6W7PR1Fuz7DXOzPa99w3RmpIisdbM3b56qOtMPgVufCs4cGx1XNt8VOLV1jf+6nEB66JK1Abf+w6baz/i1YvyMkCiUBAEBXI8xDito4nPbkX9TkmG8vNXfr5u5Y5bdms+pCRnWeOZw2VduXaoYd6LV6X9ek4vacaR5fPhINhW2ryjn2L+uOOXi8htMmUvGXyyR9oX4FZovpRb1zXLqy7236R7MpZQmG03aiNR8dlXy5GmsuYDE4R/0V0n+/37lhS6Q6qWOGOtkqf2MHetfoCmPY7Ren4+e+a58KXXI6+dx2rQ2nTeSr3j6puSnh8N2UhnSPm6+q86y8ilehbZPsQK/PAKPtkE55brfNGqFcSQ01qS1iYQ2PzdJ1ZkMS1rDm5PbNtAO9Pv3sYbdtGGZrWjPHDsTi30us4f72vJRxItML1GlzCu9vbXm/irEqt5JKcv6yK80CgYDHokDprWSQ36MC3QrCIuFY1bx8e1EJeSzUYFfFfbRDOyVVHgxafwTb6g4WO+ozLCY2f5+16IZHJZod0CZddKP0Tg33xc6/3aILabQ1CKvUgaB36GjNoeu+lvEVfB7zFF5wf1OWTwqd/IbZAAAA2ogwDylb+1/7dfaqIbq/KJXFLqxKvh6Dxmu62aRY2JfbP7Kvu7Vs5vjzX6yiU+zU0u1GdZ79y7l7tVkPpeVxX/CsLy7uycLj2asHOr7EWpNS+zXROczFXpwj9fmMIvI1/yUzvLC/1Dp/8V+zWXWhDA1/yOzr4YUrVK+zGpTfFRNbh7Tkj0elnDH6N3Oxi85y4F3tDfk0YoJz5dp++nVhP+nIu1pizqXXoTpmNdvLHlus6427X3lzrqRPdM49+aC+aPxEUq6yHxvobmiH//N+vZQ5SP/vm2aLbdUG7WnxaeTcmjYs8PCk/t+A5HPxpcR/tT003l192zbLdY8511zh95XXU2o+eci51TG/3vjoSrcu9U1qlpQ7NDbE1Vrp1/t1bgWheRqToALQCvsGaZh9LGvVWnNfZRq/ybz2yzUoT9LJoymFik7586riQmcrGGrSMaPCyQrgEl17u5rLOb+ZvWiCZ/4WrRBL8G8kModp9N+Qvdq40a0t5+8MA9u2qEL3VznHrMaOVUVGhg5bw2ntz0j/RMd1s+fpcw7RjXyeOFdzLy23Ky/Pf8htdKGJaCWdO0x0aW012NJyazqJVIcYtyKyaEvC12YC1v38mugcOhxZlCsanlZqs8dCWNbCJfHhaWtKyj1+r7EXw4oPbNvovnPKk9T0l65ZKAsAgIvZJTk5OYmKJRLy+/06ceKEzp07ZzZdUN31vNTNz00apUen/VRDtV8rWx0u6x26Newo0eMfGBs9+rr69XlEL04aoh6OtuprVun+nD/HzuPGX2rd2JwE+4+wjpN18Lf2Yh2WW29dpfsHnVS1sVBGa0rKA5rYq04rXCso5mv+S7OtFf0c89lEhoC5hNz3je/j3ocixzS/UQa3eAyNiv/yGdzqHtZkHa/JOIZ1v6w9KxxzGcXvK+xqj0n1/J5ceURT+/TW0ikZqnC1uM38zjZN9v1JT7z+i8QVU6m49mb92/RbjHkKQ9q7ttoO1/rp14+MUf8jbyYfejt4jF4p7KfDNa0tUOHTgnvd8/KF91Xrx44VdVM+Zhs5hxuaE7y3xZVPPaMBzn+UZ/bqg3+u0heOTRGXPbZYNzofrLNvycMaUpSrU9U/03HzZRrnSf1t0VR99cel+rttiV8Zw1YHdYc5TV79ei2eOdfYKGnE6zo3IUt/98ItujTRKrm6V6vuKlb2B08lmaMx8m878es/JYVr9eDc0a6Kt4aNfveqtFFlGr/pcY10FJY2716m5xbY12ZWjWu+wObdy/TvekBlo5r0aoFjxV9bXEDXsksVk2KVfa7r2rJLFZOOqrB2quQ6P3t4b+RH85zaKO49w3hfdIp7j3T1jT0/lqC2FB/Q4Lj3M1skhIky3m/HzVeVY27T4NZibb6uyprDzXF+bTn/SN/414/X+67dUh7QRH/8Z0Gy+zh5v88rdr1Ox78/d4wk52dee89rZj6f8Z9hKTGexwjXc1BarsCELNcq8U7R5+DZT1UQty/36vJtkei5sY4X22/c6z7KPHZqn9Xx+zNfX/HXPirpvzlL4ucpyWvCkOrvCAAAoHWEeV2kO58bLjzvADENFYT17s9PSW/31S2LEv/lvcPCPKSNr8a/q8+/q1bCt1SV6cvZ8/W/p9fripcfMxsdUgnzOi4oBYDOYr1Pqd0h4wVn/37QtClHP3jBbAQAAG3FMFsAHac2Q9sOSb7vfaJ1SebO+3MobG7CRe6Sbdv0Dfn0v1PWJZw7L1VfjX9Q/5sZ0t/VJgvyUhQdsraFIA9At2VNteEcqpuv+S95DIntlr7Uupmn5Av11nqCPAAAOgRhHoAO9dj9fbUrdFajf96iJ81G23+GGqWrvq1/SjSHGi5Cj+kbL+zSpZmj9fk9iV4ZKRjxuj7/rk/f2Np6hd8//sPtylNY7x/3qsrL1/yXAgo8NFzas6KThiQCQEep1Jxn6xT2T7QXI5mt4afPcw67LvLkymMa7cvUeobXAgDQYRhm20W687nhwrtohtlGfa7XX2uUkg2n+ebzqvmutaJn/R/Ha1YrwQwuEiNe17kJ0mWLftCOvyZZw2v/34fJ5977x3/YqHk3WnNH8doC3OLnVvPW9cPO4+eG8+Q5F1/n6r7XLA0UhPXuz8/q4K/6aFqt2QgAANqLMK+LdOdzAwAAAAAAQHpoe2EEAAAAAAAAgAuCMA8AAAAAAABIE+0aZgsAAAAAAACg61GZBwAAAAAAAKQJwjwAAAAAAAAgTRDmAQAAAAAAAGmCMA8AAAAAAABIE4R5AAAAAAAAQJogzAMAAAAAAADSBGEeAAAAAAAAkCYI8wAAAAAAAIA0QZgHAAAAAAAApAnCPAAAAAAAACBNEOYBAAAAAAAAaYIwDwAAAAAAAEgThHkAAAAAAABAmiDMAwAAAAAAANIEYR4AAAAAAACQJgjzAAAAAAAAgDRBmAcAAAAAAACkCcI8AAAAAAAAIE0Q5gEAAAAAAABpgjAPAAAAAAAASBOEeQAAAAAAAECaIMwDAAAAAAAA0gRhHgAAAAAAAJAmCPMAAAAAAACANEGYBwAAAAAAAKQJwjwAAAAAAAAgTRDmAQAAAAAAAGmCMA8AAAAAAABIE4R5AAAAAAAAQJogzAMAAAAAAADSBGEeAAAAAAAAkCYI8wAAAAAAAIA0QZgHAAAAAAAApAnCPAAAAAAAACBNEOYBAAAAAAAAaeL/A91SaIH9m5m1AAAAAElFTkSuQmCC;" vertex="1" parent="1">
          <mxGeometry x="190" y="370" width="1267" height="331" as="geometry" />
        </mxCell>
        <mxCell id="b0eN_dFggWS_qcE9vVDw-2" value="" style="endArrow=classic;html=1;rounded=0;strokeColor=#ff0000;exitX=0;exitY=0.5;exitDx=0;exitDy=0;" edge="1" parent="1" source="b0eN_dFggWS_qcE9vVDw-5">
          <mxGeometry width="50" height="50" relative="1" as="geometry">
            <mxPoint x="950" y="410" as="sourcePoint" />
            <mxPoint x="750" y="509" as="targetPoint" />
          </mxGeometry>
        </mxCell>
        <mxCell id="b0eN_dFggWS_qcE9vVDw-5" value="&lt;font color=&quot;#ffffff&quot; style=&quot;font-size: 20px;&quot;&gt;Gets refresh token from request&lt;/font&gt;" style="text;html=1;align=center;verticalAlign=middle;whiteSpace=wrap;rounded=0;" vertex="1" parent="1">
          <mxGeometry x="850" y="400" width="192" height="30" as="geometry" />
        </mxCell>
        <mxCell id="b0eN_dFggWS_qcE9vVDw-6" value="" style="endArrow=classic;html=1;rounded=0;strokeColor=#ff0000;exitX=0;exitY=0.5;exitDx=0;exitDy=0;" edge="1" parent="1" source="b0eN_dFggWS_qcE9vVDw-7">
          <mxGeometry width="50" height="50" relative="1" as="geometry">
            <mxPoint x="860" y="440" as="sourcePoint" />
            <mxPoint x="660" y="539" as="targetPoint" />
          </mxGeometry>
        </mxCell>
        <mxCell id="b0eN_dFggWS_qcE9vVDw-7" value="&lt;font color=&quot;#ffffff&quot; style=&quot;font-size: 20px;&quot;&gt;Gets the instance from the refresh token string&lt;/font&gt;" style="text;html=1;align=center;verticalAlign=middle;whiteSpace=wrap;rounded=0;" vertex="1" parent="1">
          <mxGeometry x="950" y="480" width="220" height="30" as="geometry" />
        </mxCell>
        <mxCell id="b0eN_dFggWS_qcE9vVDw-9" value="" style="endArrow=classic;html=1;rounded=0;strokeColor=#ff0000;exitX=0;exitY=0.5;exitDx=0;exitDy=0;" edge="1" parent="1" source="b0eN_dFggWS_qcE9vVDw-10">
          <mxGeometry width="50" height="50" relative="1" as="geometry">
            <mxPoint x="680" y="460" as="sourcePoint" />
            <mxPoint x="480" y="559" as="targetPoint" />
          </mxGeometry>
        </mxCell>
        <mxCell id="b0eN_dFggWS_qcE9vVDw-10" value="&lt;font color=&quot;#ffffff&quot; style=&quot;font-size: 20px;&quot;&gt;Blacklists the refresh token from further use&lt;/font&gt;" style="text;html=1;align=center;verticalAlign=middle;whiteSpace=wrap;rounded=0;" vertex="1" parent="1">
          <mxGeometry x="690" y="550" width="220" height="30" as="geometry" />
        </mxCell>
      </root>
    </mxGraphModel>
  </diagram>
</mxfile>
